<?xml version="1.0" encoding="UTF-8"?>
<!-- Generator: visioncortex VTracer 0.6.3 -->
<svg version="1.1" xmlns="http://www.w3.org/2000/svg" width="1280" height="1280">
<path d="M0 0 C0.7 -0 1.4 -0 2.12 -0.01 C4.45 -0.01 6.78 -0.01 9.11 -0 C10.72 -0 12.33 -0.01 13.94 -0.01 C17.32 -0.01 20.7 -0.01 24.08 -0 C28.42 0 32.76 0 37.1 -0 C40.43 -0.01 43.75 -0.01 47.08 -0 C48.68 -0 50.28 -0 51.88 -0.01 C54.12 -0.01 56.35 -0.01 58.59 0 C60.5 0 60.5 0 62.45 0 C65.29 0.13 65.29 0.13 66.29 1.13 C69.3 1.16 72.3 1.06 75.31 0.97 C78.36 1.13 79.66 1.73 82.29 3.13 C84.28 3.5 86.29 3.81 88.29 4.07 C121.03 8.28 154.69 22 183.29 38.13 C183.97 38.5 184.64 38.87 185.34 39.25 C212.26 54.08 212.26 54.08 219.29 61.13 C219.29 61.79 219.29 62.45 219.29 63.13 C220.04 63.23 220.79 63.33 221.55 63.43 C224.6 64.21 225.84 65.13 228.11 67.25 C228.79 67.88 229.47 68.51 230.17 69.15 C230.87 69.81 231.57 70.46 232.29 71.13 C233.73 72.38 235.16 73.63 236.61 74.88 C238.43 76.46 240.18 78.01 241.84 79.77 C243.36 81.38 243.36 81.38 246.29 82.13 C246.29 83.12 246.29 84.11 246.29 85.13 C247.1 85.42 247.9 85.71 248.73 86 C251.29 87.13 251.29 87.13 252.29 89.13 C255.56 93.45 259.28 97.16 263.13 100.93 C265.21 102.98 267.28 105.02 269.36 107.07 C270.06 107.76 270.77 108.45 271.5 109.16 C276.09 113.71 280.21 117.88 282.29 124.13 C283.28 124.46 284.27 124.79 285.29 125.13 C285.62 126.78 285.95 128.43 286.29 130.13 C287.28 130.46 288.27 130.79 289.29 131.13 C291.05 133.31 291.05 133.31 292.86 136 C293.45 136.89 294.05 137.77 294.67 138.68 C295.21 139.49 295.74 140.3 296.29 141.13 C296.95 142.12 297.61 143.11 298.29 144.13 C298.29 145.12 298.29 146.11 298.29 147.13 C298.95 147.13 299.61 147.13 300.29 147.13 C301.66 149.04 301.66 149.04 303.17 151.63 C303.7 152.54 304.23 153.46 304.78 154.4 C306.39 157.3 307.86 160.24 309.3 163.22 C310.32 165.18 311.46 166.98 312.67 168.82 C316.71 175.15 321.29 182.53 321.29 190.13 C321.95 190.13 322.61 190.13 323.29 190.13 C324.24 192.51 325.19 194.88 326.14 197.26 C326.89 199.12 327.65 200.99 328.41 202.84 C328.94 204.13 328.94 204.13 329.48 205.44 C329.8 206.22 330.13 207 330.46 207.81 C331.29 210.13 331.29 210.13 331.78 212.61 C332.33 215.31 333.22 217.6 334.29 220.13 C335.71 223.47 336.67 226.55 337.29 230.13 C337.6 231.65 337.91 233.17 338.23 234.69 C338.38 235.44 338.54 236.18 338.7 236.95 C339.31 239.2 340.24 241.04 341.29 243.13 C342.85 248.45 343.58 253.87 344.05 259.38 C344.12 261.15 344.12 261.15 345.29 262.13 C345.53 265.68 345.69 269.23 345.81 272.78 C346 276.86 346.41 279.49 348.29 283.13 C348.59 285.74 348.8 288.26 348.92 290.88 C348.98 291.93 348.98 291.93 349.04 292.99 C349.13 294.7 349.21 296.42 349.29 298.13 C349.62 298.13 349.95 298.13 350.29 298.13 C350.29 305.06 350.29 311.99 350.29 319.13 C353.49 319.12 353.49 319.12 356.76 319.11 C376.93 319.05 397.1 319 417.27 318.97 C427.63 318.96 438 318.94 448.37 318.9 C457.41 318.87 466.46 318.85 475.51 318.85 C480.29 318.84 485.07 318.83 489.85 318.81 C537.38 318.6 537.38 318.6 559.31 326.73 C563.25 328.17 567.21 329.17 571.29 330.13 C571.29 330.79 571.29 331.45 571.29 332.13 C572.2 332.35 572.2 332.35 573.13 332.57 C579.98 334.41 585.35 337.34 591.29 341.13 C592.64 341.89 594 342.64 595.36 343.38 C598.29 345.13 598.29 345.13 599.29 347.13 C600.22 347.58 601.15 348.04 602.11 348.5 C605.2 350.08 606.91 351.67 609.29 354.13 C610.28 354.46 611.27 354.79 612.29 355.13 C612.29 355.79 612.29 356.45 612.29 357.13 C613.25 357.53 613.25 357.53 614.23 357.94 C616.29 359.13 616.29 359.13 617.29 362.13 C617.86 362.41 618.43 362.7 619.01 362.99 C622.15 364.56 624.36 366.91 626.79 369.38 C627.27 369.84 627.74 370.31 628.23 370.79 C632.17 374.76 635.51 378.78 637.29 384.13 C637.95 384.13 638.61 384.13 639.29 384.13 C639.66 385.24 639.66 385.24 640.04 386.38 C641.1 389.16 641.1 389.16 643.11 390.88 C647.51 395.41 650.29 400.9 651.29 407.13 C651.95 407.13 652.61 407.13 653.29 407.13 C653.55 407.79 653.8 408.46 654.06 409.14 C656.16 414.61 656.16 414.61 658.92 419.75 C661.2 423.69 661.87 428.09 662.79 432.5 C662.96 433.29 663.12 434.07 663.29 434.88 C663.44 435.6 663.58 436.31 663.73 437.05 C664.22 439.16 664.22 439.16 665.29 441.07 C666.45 443.46 666.89 445.64 667.36 448.25 C667.98 451.81 667.98 451.81 669.29 455.13 C669.39 456.47 669.42 457.81 669.42 459.15 C669.42 460 669.42 460.85 669.43 461.73 C669.43 462.67 669.42 463.6 669.42 464.57 C669.42 466.07 669.42 466.07 669.43 467.59 C669.43 470.97 669.43 474.35 669.43 477.73 C669.43 480.16 669.43 482.59 669.43 485.02 C669.44 490.33 669.44 495.63 669.44 500.94 C669.44 508.83 669.44 516.72 669.45 524.61 C669.46 539.52 669.46 554.43 669.46 569.34 C669.46 580.85 669.46 592.36 669.47 603.87 C669.47 607.18 669.47 610.49 669.47 613.8 C669.47 614.63 669.47 615.45 669.47 616.3 C669.48 639.45 669.48 662.61 669.48 685.76 C669.48 686.64 669.48 687.51 669.48 688.41 C669.48 692.84 669.48 697.27 669.48 701.69 C669.48 703.01 669.48 703.01 669.48 704.36 C669.48 706.14 669.48 707.92 669.48 709.69 C669.48 737.37 669.49 765.04 669.5 792.71 C669.51 823.78 669.52 854.85 669.52 885.92 C669.52 889.23 669.52 892.54 669.52 895.85 C669.52 896.67 669.52 897.48 669.52 898.32 C669.52 911.46 669.53 924.6 669.54 937.73 C669.55 950.93 669.55 964.13 669.54 977.33 C669.54 985.17 669.54 993.02 669.55 1000.87 C669.55 1006.72 669.55 1012.57 669.54 1018.42 C669.54 1020.79 669.54 1023.17 669.55 1025.54 C669.56 1028.75 669.55 1031.97 669.54 1035.18 C669.55 1036.11 669.55 1037.04 669.56 1038 C669.53 1042.81 669.07 1046.59 667.29 1051.13 C666.89 1053.56 666.54 1056 666.23 1058.44 C665.4 1065.02 665.4 1065.02 664.29 1066.13 C663.94 1068 663.64 1069.87 663.36 1071.75 C661.4 1084.03 661.4 1084.03 659.29 1086.13 C658.85 1088.2 658.4 1090.26 657.95 1092.33 C656.17 1099.91 653.99 1107.21 650.28 1114.07 C649.09 1116.55 648.34 1119.06 647.54 1121.69 C645.9 1126.82 643.75 1131.45 641.23 1136.19 C640.72 1137.16 640.72 1137.16 640.2 1138.14 C638.51 1141.22 636.87 1143.75 634.29 1146.13 C633.26 1148.11 632.26 1150.11 631.29 1152.13 C628.69 1156.65 625.88 1161.03 622.73 1165.19 C621.18 1167.2 621.18 1167.2 619.73 1169.88 C619.26 1170.62 618.78 1171.36 618.29 1172.13 C617.63 1172.13 616.97 1172.13 616.29 1172.13 C616.15 1172.75 616 1173.37 615.86 1174 C615.29 1176.13 615.29 1176.13 614.29 1178.13 C613.63 1178.13 612.97 1178.13 612.29 1178.13 C612.02 1178.72 611.74 1179.32 611.46 1179.93 C610.34 1182.04 609.19 1183.55 607.61 1185.32 C604.47 1188.87 601.63 1192.6 598.81 1196.41 C598.31 1196.98 597.81 1197.54 597.29 1198.13 C596.63 1198.13 595.97 1198.13 595.29 1198.13 C594.96 1199.12 594.63 1200.11 594.29 1201.13 C593.63 1201.13 592.97 1201.13 592.29 1201.13 C592.29 1201.79 592.29 1202.45 592.29 1203.13 C591.63 1203.13 590.97 1203.13 590.29 1203.13 C589.96 1204.12 589.63 1205.11 589.29 1206.13 C588.63 1206.13 587.97 1206.13 587.29 1206.13 C587.29 1206.79 587.29 1207.45 587.29 1208.13 C585.61 1209.61 585.61 1209.61 583.29 1211.32 C580.24 1213.62 577.28 1215.96 574.42 1218.5 C571.21 1221.34 567.96 1224.13 564.67 1226.88 C563.79 1227.62 562.91 1228.35 562 1229.11 C559.22 1231.18 556.41 1232.63 553.29 1234.13 C552.27 1235.11 551.27 1236.11 550.29 1237.13 C547.71 1238.8 545.12 1240.22 542.36 1241.57 C539.27 1243.07 539.27 1243.07 536.48 1245 C532.54 1247.63 528.46 1249.89 524.29 1252.13 C523.6 1252.5 522.9 1252.88 522.18 1253.27 C517.96 1255.47 513.89 1256.82 509.29 1258.13 C507.37 1259.02 505.49 1260 503.61 1260.98 C497.43 1264.05 491.12 1266.96 484.29 1268.13 C479.43 1269.12 474.86 1270.15 470.29 1272.13 C466 1273.79 462.1 1274.46 457.54 1274.79 C455.23 1275.05 455.23 1275.05 452.96 1276.09 C449.69 1277.36 446.59 1277.76 443.11 1278.19 C438.55 1278.65 438.55 1278.65 434.29 1280.13 C432.48 1280.23 430.67 1280.26 428.86 1280.26 C427.69 1280.26 426.53 1280.26 425.33 1280.26 C423.39 1280.26 423.39 1280.26 421.41 1280.26 C420.03 1280.26 418.65 1280.26 417.27 1280.26 C413.44 1280.27 409.61 1280.27 405.78 1280.26 C401.63 1280.26 397.48 1280.27 393.33 1280.27 C386.04 1280.28 378.75 1280.28 371.46 1280.28 C360.62 1280.27 349.79 1280.28 338.95 1280.28 C318.47 1280.29 297.99 1280.3 277.51 1280.3 C261.69 1280.3 245.88 1280.3 230.07 1280.3 C225.52 1280.3 220.98 1280.3 216.43 1280.3 C215.3 1280.31 214.17 1280.31 213.01 1280.31 C181.21 1280.31 149.41 1280.32 117.61 1280.32 C116.41 1280.32 115.21 1280.32 113.97 1280.32 C107.89 1280.32 101.81 1280.31 95.73 1280.31 C94.52 1280.31 93.31 1280.31 92.07 1280.31 C89.62 1280.31 87.18 1280.31 84.74 1280.31 C46.73 1280.31 8.72 1280.32 -29.29 1280.34 C-71.97 1280.35 -114.64 1280.36 -157.31 1280.36 C-161.85 1280.36 -166.4 1280.36 -170.95 1280.36 C-172.63 1280.36 -172.63 1280.36 -174.34 1280.36 C-192.39 1280.36 -210.43 1280.36 -228.48 1280.37 C-246.61 1280.38 -264.74 1280.38 -282.86 1280.38 C-293.64 1280.37 -304.42 1280.37 -315.2 1280.38 C-322.39 1280.39 -329.58 1280.39 -336.78 1280.38 C-340.88 1280.38 -344.98 1280.38 -349.09 1280.38 C-352.82 1280.39 -356.55 1280.39 -360.28 1280.38 C-362.25 1280.38 -364.23 1280.39 -366.21 1280.39 C-367.39 1280.39 -368.56 1280.38 -369.77 1280.38 C-371.28 1280.38 -371.28 1280.38 -372.83 1280.38 C-376.04 1280.1 -378.68 1279.21 -381.71 1278.13 C-384.14 1277.73 -386.58 1277.37 -389.02 1277.07 C-395.6 1276.23 -395.6 1276.23 -396.71 1275.13 C-398.58 1274.78 -400.45 1274.47 -402.33 1274.19 C-414.6 1272.23 -414.6 1272.23 -416.71 1270.13 C-418.77 1269.68 -420.84 1269.23 -422.91 1268.79 C-430.49 1267 -437.85 1264.82 -444.72 1261.11 C-446.98 1260 -449.25 1259.23 -451.64 1258.44 C-456.86 1256.61 -461.65 1254.21 -466.52 1251.63 C-467.6 1251.06 -467.6 1251.06 -468.69 1250.48 C-472.86 1248.23 -476.79 1245.79 -480.71 1243.13 C-481.64 1242.68 -482.56 1242.22 -483.52 1241.75 C-487.79 1239.58 -491.95 1237.12 -495.71 1234.13 C-495.71 1233.47 -495.71 1232.81 -495.71 1232.13 C-496.37 1232.09 -497.03 1232.05 -497.71 1232 C-502.03 1230.74 -505.43 1228.2 -508.71 1225.13 C-508.71 1224.47 -508.71 1223.81 -508.71 1223.13 C-509.3 1222.85 -509.9 1222.58 -510.51 1222.3 C-512.61 1221.18 -514.13 1220.03 -515.89 1218.44 C-519.44 1215.3 -523.18 1212.47 -526.98 1209.65 C-527.55 1209.14 -528.12 1208.64 -528.71 1208.13 C-528.71 1207.47 -528.71 1206.81 -528.71 1206.13 C-529.7 1205.8 -530.69 1205.47 -531.71 1205.13 C-531.71 1204.47 -531.71 1203.81 -531.71 1203.13 C-532.37 1203.13 -533.03 1203.13 -533.71 1203.13 C-533.71 1202.47 -533.71 1201.81 -533.71 1201.13 C-534.7 1200.8 -535.69 1200.47 -536.71 1200.13 C-536.71 1199.47 -536.71 1198.81 -536.71 1198.13 C-537.37 1198.13 -538.03 1198.13 -538.71 1198.13 C-540.18 1196.5 -541.59 1194.79 -542.96 1193.07 C-545.67 1189.67 -548.39 1186.32 -551.27 1183.07 C-553.71 1180.13 -553.71 1180.13 -553.71 1178.13 C-554.37 1178.13 -555.03 1178.13 -555.71 1178.13 C-557.4 1176.05 -557.4 1176.05 -559.27 1173.32 C-560.2 1171.98 -560.2 1171.98 -561.15 1170.61 C-562.71 1168.13 -562.71 1168.13 -563.71 1165.13 C-564.33 1164.51 -564.94 1163.89 -565.58 1163.25 C-567.84 1161 -569.13 1158.9 -570.71 1156.13 C-572.04 1154.08 -573.37 1152.04 -574.72 1150 C-575.71 1148.13 -575.71 1148.13 -575.71 1145.13 C-576.37 1145.13 -577.03 1145.13 -577.71 1145.13 C-584.04 1133.63 -590.39 1122.04 -593.74 1109.26 C-594.06 1108.23 -594.38 1107.19 -594.71 1106.13 C-595.37 1105.8 -596.03 1105.47 -596.71 1105.13 C-597.23 1103.31 -597.23 1103.31 -597.64 1101 C-598.36 1097.44 -599.41 1094.42 -600.92 1091.11 C-604.22 1082.8 -605.42 1073.6 -607.02 1064.84 C-607.68 1061.27 -608.43 1057.75 -609.28 1054.22 C-610.6 1047.78 -610.85 1041.61 -610.83 1035.06 C-610.83 1034.06 -610.84 1033.05 -610.84 1032.02 C-610.84 1028.65 -610.84 1025.27 -610.83 1021.9 C-610.84 1019.46 -610.84 1017.03 -610.84 1014.59 C-610.84 1009.28 -610.84 1003.98 -610.84 998.67 C-610.84 990.78 -610.84 982.89 -610.84 975 C-610.85 960.91 -610.85 946.82 -610.84 932.73 C-610.84 920.41 -610.84 908.08 -610.84 895.76 C-610.84 894.94 -610.84 894.12 -610.84 893.28 C-610.84 889.96 -610.84 886.65 -610.84 883.33 C-610.85 852.21 -610.84 821.09 -610.84 789.97 C-610.83 762.3 -610.83 734.64 -610.84 706.97 C-610.84 675.9 -610.84 644.83 -610.84 613.76 C-610.84 610.45 -610.84 607.14 -610.84 603.83 C-610.84 603.02 -610.84 602.2 -610.84 601.36 C-610.84 589.04 -610.84 576.72 -610.84 564.39 C-610.85 550.39 -610.85 536.38 -610.84 522.38 C-610.84 514.53 -610.84 506.69 -610.84 498.85 C-610.84 493 -610.84 487.16 -610.84 481.32 C-610.83 478.94 -610.84 476.57 -610.84 474.19 C-610.84 470.99 -610.84 467.78 -610.83 464.57 C-610.84 463.63 -610.84 462.69 -610.84 461.72 C-610.84 460.88 -610.83 460.03 -610.83 459.15 C-610.83 458.42 -610.83 457.68 -610.83 456.93 C-610.71 455.13 -610.71 455.13 -609.71 453.13 C-609.48 451.26 -609.3 449.38 -609.14 447.5 C-609.06 446.5 -608.98 445.5 -608.89 444.47 C-608.8 443.31 -608.8 443.31 -608.71 442.13 C-608.05 442.13 -607.39 442.13 -606.71 442.13 C-607.2 440.64 -607.2 440.64 -607.71 439.13 C-606.99 437.43 -606.26 435.72 -605.48 434.05 C-604.31 431.15 -604.02 428.22 -603.71 425.13 C-603.38 425.13 -603.05 425.13 -602.71 425.13 C-602.42 424.1 -602.13 423.07 -601.83 422 C-600.88 418.68 -599.82 415.4 -598.71 412.13 C-598.05 412.13 -597.39 412.13 -596.71 412.13 C-596.71 410.81 -596.71 409.49 -596.71 408.13 C-596.05 407.8 -595.39 407.47 -594.71 407.13 C-593.58 404.79 -593.58 404.79 -592.58 402.07 C-592.23 401.15 -591.88 400.23 -591.51 399.28 C-591.25 398.57 -590.98 397.86 -590.71 397.13 C-590.05 397.13 -589.39 397.13 -588.71 397.13 C-588.62 396.61 -588.54 396.1 -588.46 395.57 C-586.62 389.59 -582.91 384.66 -578.71 380.13 C-578.05 380.13 -577.39 380.13 -576.71 380.13 C-576.71 379.14 -576.71 378.15 -576.71 377.13 C-575.72 377.13 -574.73 377.13 -573.71 377.13 C-573.65 376.41 -573.58 375.69 -573.52 374.94 C-572.44 371.22 -570.51 369.79 -567.71 367.13 C-566.33 365.8 -566.33 365.8 -564.92 364.45 C-563.98 363.58 -563.05 362.71 -562.08 361.82 C-561.14 360.93 -560.2 360.05 -559.23 359.14 C-556.71 357.13 -556.71 357.13 -553.71 357.13 C-553.71 356.14 -553.71 355.15 -553.71 354.13 C-552.72 354.13 -551.73 354.13 -550.71 354.13 C-550.46 353.53 -550.21 352.93 -549.96 352.32 C-547.08 347.29 -540.73 344.6 -535.64 342.13 C-533.5 341.07 -533.5 341.07 -530.89 339.19 C-528.2 337.45 -525.66 336.17 -522.7 334.99 C-519.41 333.57 -516.29 331.82 -513.14 330.12 C-510.48 329.04 -508.55 328.94 -505.71 329.13 C-505.71 328.47 -505.71 327.81 -505.71 327.13 C-504.87 326.97 -504.87 326.97 -504.02 326.8 C-500.13 325.99 -496.49 325.12 -492.83 323.57 C-488.8 321.96 -484.93 321.65 -480.61 321.44 C-477.54 321.19 -477.54 321.19 -474.01 320.13 C-469.95 319.1 -466.18 318.88 -461.99 318.89 C-460.89 318.89 -460.89 318.89 -459.76 318.88 C-457.33 318.88 -454.89 318.89 -452.46 318.9 C-450.7 318.9 -448.95 318.9 -447.19 318.9 C-442.45 318.9 -437.7 318.91 -432.95 318.93 C-427.99 318.94 -423.02 318.94 -418.05 318.94 C-408.65 318.95 -399.25 318.97 -389.85 318.99 C-379.15 319.01 -368.45 319.02 -357.74 319.03 C-335.73 319.05 -313.72 319.08 -291.71 319.13 C-291.71 318.45 -291.72 317.77 -291.72 317.07 C-291.74 313.94 -291.75 310.81 -291.77 307.68 C-291.77 306.6 -291.78 305.53 -291.79 304.43 C-291.81 297.03 -291.3 289.97 -290.22 282.65 C-289.47 277.49 -289.08 272.32 -288.71 267.13 C-288.05 267.13 -287.39 267.13 -286.71 267.13 C-286.9 266.42 -287.09 265.72 -287.29 264.99 C-287.77 261.66 -287.25 259.54 -286.33 256.32 C-285.35 252.7 -284.49 249.23 -284.08 245.5 C-283.71 242.13 -283.71 242.13 -282.71 240.13 C-281.02 235.4 -279.77 230.62 -278.58 225.75 C-278.4 225.02 -278.22 224.28 -278.03 223.52 C-277.59 221.73 -277.15 219.93 -276.71 218.13 C-276.05 218.13 -275.39 218.13 -274.71 218.13 C-274.38 215.49 -274.05 212.85 -273.71 210.13 C-273.05 210.13 -272.39 210.13 -271.71 210.13 C-271.71 208.15 -271.71 206.17 -271.71 204.13 C-271.05 204.13 -270.39 204.13 -269.71 204.13 C-269.62 202.95 -269.54 201.78 -269.46 200.57 C-268.89 195.94 -267.19 193.05 -264.71 189.13 C-263.4 186.67 -262.31 184.2 -261.21 181.63 C-260.11 179.07 -258.95 176.61 -257.71 174.13 C-257.38 173.14 -257.05 172.15 -256.71 171.13 C-256.05 170.8 -255.39 170.47 -254.71 170.13 C-254.05 167.6 -254.05 167.6 -253.71 165.13 C-253.05 165.13 -252.39 165.13 -251.71 165.13 C-251.56 164.51 -251.42 163.89 -251.27 163.25 C-250.5 160.35 -249.05 157.81 -247.71 155.13 C-247.05 155.13 -246.39 155.13 -245.71 155.13 C-245.34 153.55 -245.34 153.55 -244.96 151.94 C-243.93 148.3 -242.18 146.01 -239.71 143.13 C-239.38 142.14 -239.05 141.15 -238.71 140.13 C-238.05 140.13 -237.39 140.13 -236.71 140.13 C-236.38 139.14 -236.05 138.15 -235.71 137.13 C-234.66 134.64 -233.73 133.15 -231.77 131.25 C-229.36 128.77 -228.22 126.22 -226.71 123.13 C-225.14 121.25 -225.14 121.25 -223.71 120.13 C-223.05 120.13 -222.39 120.13 -221.71 120.13 C-221.56 119.49 -221.42 118.85 -221.27 118.19 C-220.71 116.13 -220.71 116.13 -219.71 115.13 C-218.87 114.13 -218.03 113.13 -217.16 112.1 C-213.43 107.74 -209.43 103.67 -205.39 99.61 C-204.61 98.82 -203.82 98.03 -203.02 97.22 C-201.38 95.57 -199.74 93.92 -198.09 92.28 C-195.58 89.75 -193.07 87.21 -190.56 84.67 C-188.96 83.07 -187.36 81.46 -185.76 79.86 C-185.01 79.1 -184.27 78.34 -183.5 77.55 C-182.79 76.85 -182.09 76.16 -181.37 75.44 C-180.45 74.51 -180.45 74.51 -179.51 73.57 C-177.56 72.02 -176.15 71.53 -173.71 71.13 C-174.04 70.47 -174.37 69.81 -174.71 69.13 C-173.39 69.13 -172.07 69.13 -170.71 69.13 C-170.46 68.53 -170.21 67.93 -169.96 67.32 C-168.04 63.96 -165.36 62.52 -162.08 60.57 C-159.63 59.21 -159.63 59.21 -157.71 57.13 C-155.39 55.86 -153.23 54.97 -150.71 54.13 C-150.71 53.47 -150.71 52.81 -150.71 52.13 C-150.13 52.05 -149.55 51.96 -148.96 51.88 C-146.56 51.28 -146.56 51.28 -144.89 49.19 C-142.09 46.55 -139.37 46.17 -135.71 45.13 C-135.38 44.14 -135.05 43.15 -134.71 42.13 C-133.9 42.01 -133.1 41.88 -132.27 41.75 C-131.42 41.55 -130.58 41.34 -129.71 41.13 C-129.38 40.47 -129.05 39.81 -128.71 39.13 C-127.72 39.13 -126.73 39.13 -125.71 39.13 C-125.71 38.47 -125.71 37.81 -125.71 37.13 C-124.22 36.63 -124.22 36.63 -122.71 36.13 C-122.05 36.46 -121.39 36.79 -120.71 37.13 C-120.71 36.47 -120.71 35.81 -120.71 35.13 C-119.06 34.8 -117.41 34.47 -115.71 34.13 C-115.71 33.47 -115.71 32.81 -115.71 32.13 C-113.73 31.8 -111.75 31.47 -109.71 31.13 C-109.71 30.47 -109.71 29.81 -109.71 29.13 C-108.39 29.13 -107.07 29.13 -105.71 29.13 C-105.71 28.47 -105.71 27.81 -105.71 27.13 C-104.99 26.88 -104.28 26.62 -103.55 26.36 C-94.55 23.78 -94.55 23.78 -86.71 19.13 C-84.71 19.09 -82.71 19.09 -80.71 19.13 C-80.71 18.47 -80.71 17.81 -80.71 17.13 C-79.51 16.86 -78.31 16.59 -77.08 16.32 C-74.3 15.63 -72.28 14.91 -69.71 13.57 C-65.94 11.76 -62.85 11.49 -58.71 11.13 C-58.71 10.47 -58.71 9.81 -58.71 9.13 C-57.25 8.93 -55.79 8.75 -54.33 8.57 C-53.52 8.46 -52.71 8.36 -51.87 8.25 C-49.71 8.13 -49.71 8.13 -47.71 9.13 C-47.71 8.47 -47.71 7.81 -47.71 7.13 C-46.43 7.03 -45.15 6.92 -43.83 6.82 C-39.33 6.34 -35.32 5.17 -31.07 3.65 C-28.31 3.04 -26.42 3.41 -23.71 4.13 C-23.71 3.47 -23.71 2.81 -23.71 2.13 C-22.56 2.07 -21.42 2.01 -20.24 1.95 C-18.75 1.86 -17.26 1.78 -15.77 1.69 C-15.01 1.65 -14.26 1.61 -13.48 1.57 C-8.54 1.28 -5.05 0 0 0 Z M7.29 108.13 C4 108.46 0.73 108.64 -2.58 108.78 C-5.93 108.67 -5.93 108.67 -8.71 110.13 C-10.71 110.36 -12.72 110.59 -14.72 110.82 C-17.04 111.18 -18.66 112.01 -20.71 113.13 C-25.41 114.7 -29.88 115.47 -34.79 115.88 C-36.79 116.03 -36.79 116.03 -38.71 117.13 C-38.71 117.79 -38.71 118.45 -38.71 119.13 C-41.28 119.79 -43.86 120.38 -46.46 120.94 C-52.22 122.39 -57.17 125.22 -62.27 128.19 C-65.71 130.13 -65.71 130.13 -69.08 131.57 C-76.79 134.89 -83.42 139.22 -90.13 144.26 C-92.71 146.13 -92.71 146.13 -95.22 147.62 C-97.92 149.26 -100.27 151.12 -102.71 153.13 C-103.59 153.81 -104.47 154.5 -105.38 155.2 C-106.25 155.88 -107.12 156.56 -108.02 157.25 C-108.9 157.94 -109.79 158.62 -110.7 159.32 C-111.36 159.92 -112.02 160.52 -112.71 161.13 C-112.71 161.79 -112.71 162.45 -112.71 163.13 C-113.37 163.13 -114.03 163.13 -114.71 163.13 C-116.37 164.46 -116.37 164.46 -117.71 166.13 C-117.71 166.79 -117.71 167.45 -117.71 168.13 C-118.37 168.13 -119.03 168.13 -119.71 168.13 C-121.37 169.46 -121.37 169.46 -122.71 171.13 C-122.71 171.79 -122.71 172.45 -122.71 173.13 C-123.37 173.13 -124.03 173.13 -124.71 173.13 C-126.31 174.68 -126.31 174.68 -127.96 176.69 C-128.58 177.42 -129.2 178.16 -129.84 178.91 C-130.46 179.64 -131.07 180.38 -131.71 181.13 C-132.73 182.32 -133.75 183.51 -134.77 184.69 C-135.25 185.26 -135.74 185.83 -136.23 186.41 C-137.23 187.58 -138.25 188.73 -139.27 189.88 C-142.22 193.19 -144.54 196.39 -146.65 200.32 C-147.83 202.34 -149.2 204.11 -150.64 205.94 C-154.04 210.36 -156.33 215.11 -158.71 220.13 C-159.52 221.74 -160.33 223.34 -161.14 224.94 C-165.57 233.83 -169.77 242.64 -172.71 252.13 C-173.39 254.13 -174.08 256.13 -174.77 258.13 C-176.72 263.98 -178.1 269.82 -179.21 275.88 C-179.71 278.13 -179.71 278.13 -180.7 280.31 C-181.94 283.78 -182.1 286.88 -182.27 290.57 C-182.5 295.23 -182.93 299.5 -183.71 304.13 C-183.38 309.08 -183.05 314.03 -182.71 319.13 C-42.79 319.13 97.13 319.13 241.29 319.13 C241.29 305.67 241.01 294.05 238.29 281.13 C238.15 280.46 238.02 279.79 237.87 279.1 C237.04 272.66 237.04 272.66 234.29 267.13 C233.97 265.47 233.68 263.8 233.42 262.13 C232.4 256.24 230.98 250.5 228.29 245.13 C227.26 242.57 226.24 240.01 225.23 237.44 C224.34 235.16 224.34 235.16 223.29 233.13 C222.63 233.13 221.97 233.13 221.29 233.13 C221.62 232.14 221.95 231.15 222.29 230.13 C221.3 228.79 220.3 227.46 219.29 226.13 C218.49 224.21 217.81 222.26 217.12 220.3 C215.78 216.77 214.03 213.48 212.29 210.13 C211.63 210.13 210.97 210.13 210.29 210.13 C209.95 209.11 209.95 209.11 209.61 208.07 C208.24 205.02 206.61 202.63 204.61 199.97 C203.29 198.13 203.29 198.13 201.91 195.76 C200.09 192.8 198.02 190.23 195.79 187.57 C191.44 182.33 191.44 182.33 189.64 179.79 C189.19 179.24 188.75 178.69 188.29 178.13 C187.63 178.13 186.97 178.13 186.29 178.13 C186.29 177.47 186.29 176.81 186.29 176.13 C184.96 174.46 184.96 174.46 183.29 173.13 C182.63 173.13 181.97 173.13 181.29 173.13 C181.29 172.47 181.29 171.81 181.29 171.13 C179.96 169.46 179.96 169.46 178.29 168.13 C177.63 168.13 176.97 168.13 176.29 168.13 C176.29 167.47 176.29 166.81 176.29 166.13 C175.02 164.44 175.02 164.44 173.29 163.13 C172.3 163.13 171.31 163.13 170.29 163.13 C170.03 162.53 169.76 161.93 169.49 161.31 C168.25 159.05 167.15 157.92 165.17 156.32 C161.77 153.53 158.52 150.62 155.29 147.65 C153.06 145.95 150.89 145.16 148.29 144.13 C146.86 143.07 145.46 141.97 144.11 140.82 C139.44 137.1 134.66 134.65 129.29 132.13 C126.54 130.77 123.79 129.39 121.04 128 C119.06 127.01 117.08 126.02 115.1 125.04 C113.46 124.21 111.83 123.36 110.2 122.51 C107.17 121.07 104.2 120.07 100.98 119.13 C97.14 117.99 93.33 116.82 89.54 115.5 C85.76 114.22 81.96 113.33 78.04 112.56 C76.29 112.13 76.29 112.13 75.29 111.13 C73.97 110.92 72.63 110.76 71.29 110.63 C67.4 110.24 67.4 110.24 66.29 109.13 C63.89 108.94 61.51 108.8 59.11 108.69 C51.93 108.36 51.93 108.36 48.51 107.12 C44.84 105.99 41.76 105.87 37.92 105.86 C37.23 105.86 36.54 105.86 35.83 105.86 C34.39 105.86 32.94 105.86 31.5 105.87 C29.3 105.88 27.1 105.87 24.9 105.86 C23.49 105.86 22.08 105.86 20.67 105.86 C18.76 105.87 18.76 105.87 16.82 105.87 C13.3 106.13 10.59 106.93 7.29 108.13 Z M-152.71 204.13 C-153.04 205.12 -153.37 206.11 -153.71 207.13 C-152.72 206.8 -151.73 206.47 -150.71 206.13 C-150.71 205.47 -150.71 204.81 -150.71 204.13 C-151.37 204.13 -152.03 204.13 -152.71 204.13 Z M-184.71 304.13 C-184.71 308.75 -184.71 313.37 -184.71 318.13 C-184.38 318.13 -184.05 318.13 -183.71 318.13 C-183.71 313.51 -183.71 308.89 -183.71 304.13 C-184.04 304.13 -184.37 304.13 -184.71 304.13 Z M-456.71 426.13 C-456.71 426.46 -456.71 426.79 -456.71 427.13 C-402.59 427.13 -348.47 427.13 -292.71 427.13 C-292.71 426.8 -292.71 426.47 -292.71 426.13 C-346.83 426.13 -400.95 426.13 -456.71 426.13 Z M-182.71 426.13 C-182.71 426.46 -182.71 426.79 -182.71 427.13 C-43.12 427.13 96.47 427.13 240.29 427.13 C240.29 426.8 240.29 426.47 240.29 426.13 C100.7 426.13 -38.89 426.13 -182.71 426.13 Z M348.29 428.13 C347.98 430.34 347.98 430.34 348.03 432.94 C348.02 433.95 348.01 434.97 348 436.01 C348 437.13 348 438.25 348.01 439.4 C348 440.57 347.99 441.75 347.99 442.96 C347.97 446.18 347.96 449.41 347.95 452.63 C347.95 456.01 347.93 459.38 347.9 462.75 C347.86 471.34 347.82 479.92 347.79 488.5 C347.76 497.76 347.72 507.02 347.67 516.28 C347.65 519.64 347.63 523 347.63 526.36 C347.62 530.11 347.6 533.85 347.58 537.6 C347.58 538.71 347.58 539.83 347.58 540.98 C347.57 542 347.57 543.02 347.56 544.07 C347.55 545.4 347.55 545.4 347.55 546.75 C347.27 549.32 346.54 550.89 345.29 553.13 C345 554.08 344.72 555.03 344.42 556 C342.69 560.82 339.84 564.53 336.54 568.38 C334.08 570.8 334.08 570.8 334.29 573.13 C333.56 573.4 332.83 573.67 332.08 573.94 C329.35 575.1 327.16 576.44 324.73 578.13 C315.33 584.64 307.27 585.49 295.98 585.5 C294.81 585.53 293.64 585.55 292.43 585.58 C284.84 585.6 279.07 584.53 272.29 581.13 C271.47 580.73 270.65 580.33 269.81 579.92 C264.31 577.17 260.43 573.62 256.29 569.13 C255.59 568.51 254.89 567.89 254.17 567.25 C251.23 563.92 249.35 560.05 247.29 556.13 C246.74 555.16 246.18 554.19 245.61 553.19 C242.25 545.36 241.99 537.12 241.97 528.71 C241.96 527.62 241.95 526.53 241.94 525.4 C241.91 521.82 241.9 518.23 241.88 514.65 C241.86 512.16 241.84 509.66 241.82 507.16 C241.77 500.62 241.73 494.07 241.69 487.52 C241.65 480.83 241.6 474.14 241.55 467.45 C241.45 454.35 241.37 441.24 241.29 428.13 C187.17 427.98 133.04 427.83 78.92 427.7 C72.53 427.68 66.15 427.66 59.77 427.65 C58.5 427.64 57.23 427.64 55.92 427.64 C35.31 427.58 14.71 427.53 -5.9 427.47 C-27.02 427.41 -48.15 427.36 -69.27 427.3 C-82.32 427.27 -95.37 427.24 -108.41 427.2 C-117.35 427.17 -126.28 427.15 -135.22 427.13 C-140.38 427.12 -145.54 427.11 -150.7 427.09 C-155.42 427.07 -160.14 427.06 -164.86 427.05 C-166.57 427.05 -168.29 427.04 -170 427.04 C-172.32 427.03 -174.63 427.02 -176.95 427.02 C-178.24 427.02 -179.53 427.02 -180.86 427.01 C-183.61 426.8 -183.61 426.8 -184.71 428.13 C-184.81 429.67 -184.84 431.21 -184.84 432.74 C-184.84 433.74 -184.85 434.74 -184.85 435.77 C-184.85 436.87 -184.85 437.98 -184.85 439.12 C-184.85 440.27 -184.86 441.43 -184.86 442.62 C-184.87 445.14 -184.87 447.66 -184.88 450.18 C-184.88 454.18 -184.9 458.17 -184.92 462.16 C-184.92 463.53 -184.93 464.9 -184.94 466.26 C-184.94 466.95 -184.94 467.63 -184.95 468.34 C-184.99 477.64 -185.02 486.94 -185.03 496.24 C-185.04 502.5 -185.06 508.77 -185.1 515.04 C-185.12 518.35 -185.13 521.67 -185.13 524.98 C-185.13 528.69 -185.15 532.4 -185.18 536.11 C-185.17 537.2 -185.16 538.28 -185.16 539.41 C-185.24 546.23 -186.49 551.13 -189.71 557.13 C-190.06 557.89 -190.42 558.65 -190.79 559.43 C-194.75 567.83 -202.8 576.82 -211.58 580.28 C-213.01 580.85 -214.42 581.47 -215.8 582.14 C-223.01 585.45 -229.48 585.7 -237.33 585.57 C-238.51 585.57 -239.68 585.58 -240.89 585.59 C-247.61 585.54 -252.56 584.78 -258.71 582.13 C-260.03 582.13 -261.35 582.13 -262.71 582.13 C-263.04 581.14 -263.37 580.15 -263.71 579.13 C-265.69 578.8 -267.67 578.47 -269.71 578.13 C-269.71 577.47 -269.71 576.81 -269.71 576.13 C-270.37 576.13 -271.03 576.13 -271.71 576.13 C-271.71 575.47 -271.71 574.81 -271.71 574.13 C-272.33 574.07 -272.94 574.01 -273.58 573.94 C-274.28 573.67 -274.98 573.41 -275.71 573.13 C-276.4 571.47 -277.06 569.8 -277.71 568.13 C-279.35 566.44 -281.02 564.78 -282.71 563.13 C-288.39 555.94 -290.8 546.29 -290.87 537.2 C-290.88 535.75 -290.88 535.75 -290.89 534.27 C-290.9 533.22 -290.91 532.18 -290.91 531.1 C-290.92 529.98 -290.93 528.87 -290.94 527.73 C-290.97 524.05 -291 520.38 -291.02 516.7 C-291.04 514.15 -291.07 511.61 -291.09 509.06 C-291.14 503.04 -291.18 497.02 -291.22 491 C-291.27 484.14 -291.33 477.28 -291.38 470.43 C-291.5 456.33 -291.6 442.23 -291.71 428.13 C-313.33 427.95 -334.94 427.79 -356.56 427.63 C-366.6 427.56 -376.64 427.49 -386.68 427.41 C-395.43 427.33 -404.18 427.27 -412.93 427.21 C-417.56 427.18 -422.2 427.15 -426.83 427.1 C-431.19 427.06 -435.56 427.03 -439.92 427.01 C-441.52 427 -443.12 426.99 -444.71 426.97 C-461.96 426.78 -474.47 430.6 -487.71 442.13 C-495.17 450.13 -501.18 459.38 -503.28 470.18 C-503.71 472.13 -503.71 472.13 -504.71 474.13 C-504.81 477.11 -504.84 480.06 -504.84 483.03 C-504.84 483.97 -504.84 484.91 -504.84 485.88 C-504.85 489.06 -504.84 492.24 -504.84 495.42 C-504.84 497.71 -504.84 500 -504.85 502.29 C-504.85 508.6 -504.85 514.92 -504.85 521.24 C-504.85 527.34 -504.86 533.45 -504.86 539.55 C-504.87 553.59 -504.87 567.62 -504.87 581.66 C-504.87 592.49 -504.88 603.33 -504.88 614.16 C-504.88 617.28 -504.88 620.39 -504.88 623.51 C-504.88 624.28 -504.88 625.06 -504.88 625.86 C-504.89 647.65 -504.89 669.44 -504.89 691.23 C-504.89 692.05 -504.89 692.87 -504.89 693.72 C-504.89 697.89 -504.89 702.05 -504.89 706.22 C-504.89 707.05 -504.89 707.87 -504.89 708.73 C-504.89 710.4 -504.89 712.07 -504.89 713.75 C-504.89 739.8 -504.9 765.84 -504.91 791.89 C-504.93 821.13 -504.94 850.37 -504.94 879.62 C-504.94 882.73 -504.94 885.85 -504.94 888.96 C-504.94 889.73 -504.94 890.5 -504.94 891.29 C-504.94 903.65 -504.94 916.02 -504.95 928.39 C-504.96 940.81 -504.96 953.23 -504.95 965.65 C-504.95 972.39 -504.95 979.12 -504.96 985.86 C-504.97 992.01 -504.97 998.17 -504.96 1004.32 C-504.96 1006.56 -504.96 1008.8 -504.96 1011.03 C-504.97 1014.05 -504.96 1017.08 -504.96 1020.1 C-504.96 1020.98 -504.97 1021.86 -504.97 1022.77 C-504.95 1027.75 -504.95 1027.75 -502.71 1032.13 C-502.36 1034.91 -502.36 1034.91 -502.21 1038.07 C-502.01 1042.03 -501.61 1044.66 -499.71 1048.13 C-499.37 1049.43 -499.08 1050.75 -498.83 1052.07 C-496.96 1060.99 -494.03 1069.65 -490.71 1078.13 C-490.05 1078.13 -489.39 1078.13 -488.71 1078.13 C-488.6 1078.84 -488.5 1079.56 -488.39 1080.29 C-487.63 1083.44 -486.43 1085.76 -484.83 1088.57 C-483.14 1091.57 -481.52 1094.53 -480.02 1097.63 C-478.76 1100.03 -477.63 1101.28 -475.71 1103.13 C-474.35 1105.11 -473.01 1107.11 -471.71 1109.13 C-471.05 1110.12 -470.39 1111.11 -469.71 1112.13 C-469.05 1112.13 -468.39 1112.13 -467.71 1112.13 C-467.34 1112.96 -467.34 1112.96 -466.96 1113.8 C-462.41 1122.26 -455.41 1128.62 -447.71 1134.13 C-446.74 1134.93 -445.77 1135.74 -444.77 1136.57 C-442.87 1138.33 -442.87 1138.33 -440.71 1138.13 C-440.21 1139.61 -440.21 1139.61 -439.71 1141.13 C-435.64 1144.34 -435.64 1144.34 -430.71 1145.13 C-430.71 1146.12 -430.71 1147.11 -430.71 1148.13 C-430.12 1148.42 -429.54 1148.71 -428.94 1149.01 C-427.71 1149.63 -427.71 1149.63 -426.46 1150.25 C-425.54 1150.71 -424.63 1151.16 -423.69 1151.63 C-421.7 1152.63 -419.71 1153.64 -417.72 1154.66 C-409 1159.1 -400.35 1162.77 -390.95 1165.48 C-389.16 1166 -387.4 1166.58 -385.64 1167.19 C-381.71 1168.45 -377.75 1169.29 -373.71 1170.13 C-372.52 1170.39 -372.52 1170.39 -371.31 1170.66 C-363.88 1172.17 -356.72 1172.41 -349.15 1172.38 C-347.8 1172.39 -346.46 1172.39 -345.11 1172.39 C-341.43 1172.4 -337.74 1172.4 -334.06 1172.39 C-330.04 1172.39 -326.03 1172.4 -322.01 1172.4 C-314.98 1172.41 -307.95 1172.41 -300.92 1172.41 C-290.47 1172.4 -280.01 1172.41 -269.56 1172.42 C-249.8 1172.43 -230.03 1172.43 -210.27 1172.43 C-195.02 1172.43 -179.76 1172.43 -164.5 1172.44 C-162.31 1172.44 -160.11 1172.44 -157.92 1172.44 C-154.62 1172.44 -151.31 1172.44 -148.01 1172.44 C-117.3 1172.45 -86.58 1172.45 -55.87 1172.45 C-54.71 1172.45 -53.55 1172.45 -52.36 1172.45 C-46.49 1172.45 -40.62 1172.45 -34.75 1172.45 C-33.59 1172.45 -32.42 1172.45 -31.22 1172.45 C-28.86 1172.45 -26.51 1172.44 -24.15 1172.44 C12.53 1172.44 49.2 1172.45 85.88 1172.47 C127.09 1172.49 168.29 1172.5 209.5 1172.49 C213.89 1172.49 218.29 1172.49 222.68 1172.49 C223.76 1172.49 224.85 1172.49 225.96 1172.49 C242.29 1172.49 258.62 1172.5 274.96 1172.51 C293.53 1172.52 312.1 1172.52 330.68 1172.51 C341.07 1172.5 351.46 1172.5 361.85 1172.52 C368.8 1172.53 375.74 1172.52 382.69 1172.51 C386.64 1172.51 390.6 1172.5 394.55 1172.52 C398.16 1172.53 401.76 1172.52 405.37 1172.51 C407.26 1172.5 409.15 1172.51 411.05 1172.53 C418.49 1172.48 425.28 1171.5 432.53 1169.77 C435.29 1169.13 435.29 1169.13 437.29 1169.13 C437.29 1168.47 437.29 1167.81 437.29 1167.13 C438.22 1167.16 438.22 1167.16 439.16 1167.2 C439.96 1167.22 440.77 1167.24 441.61 1167.25 C442.81 1167.29 442.81 1167.29 444.03 1167.32 C446.58 1167.29 446.58 1167.29 449.29 1165.13 C451.28 1164.74 453.28 1164.4 455.29 1164.13 C455.29 1163.8 455.29 1163.47 455.29 1163.13 C457.6 1162.47 459.91 1161.81 462.29 1161.13 C462.29 1160.47 462.29 1159.81 462.29 1159.13 C463.38 1158.94 463.38 1158.94 464.48 1158.75 C468.69 1157.82 472.2 1156.22 475.92 1154.07 C479.29 1152.13 479.29 1152.13 482.29 1151.13 C482.95 1150.47 483.61 1149.81 484.29 1149.13 C484.95 1149.13 485.61 1149.13 486.29 1149.13 C486.29 1148.47 486.29 1147.81 486.29 1147.13 C486.91 1146.84 487.53 1146.55 488.17 1146.25 C490.43 1145.19 490.43 1145.19 492.29 1143.13 C493.19 1142.97 493.19 1142.97 494.11 1142.82 C497.32 1141.81 498.97 1139.51 501.29 1137.13 C501.94 1136.81 502.59 1136.48 503.26 1136.15 C505.39 1135.08 506.69 1133.96 508.35 1132.27 C508.9 1131.71 509.45 1131.15 510.02 1130.58 C510.59 1130 511.15 1129.42 511.73 1128.82 C512.29 1128.25 512.85 1127.68 513.43 1127.09 C514.53 1125.97 515.63 1124.85 516.73 1123.72 C518.18 1122.25 519.64 1120.79 521.1 1119.34 C523.85 1116.56 525.89 1113.81 527.86 1110.44 C529.29 1108.13 529.29 1108.13 531.29 1107.13 C531.76 1105.95 531.76 1105.95 532.23 1104.75 C533.31 1102.08 534.31 1101.11 536.29 1099.13 C536.62 1098.28 536.95 1097.44 537.29 1096.57 C538.29 1094.13 538.29 1094.13 541.29 1092.13 C542.31 1089.72 542.31 1089.72 542.98 1087 C543.23 1086.09 543.48 1085.18 543.74 1084.25 C543.92 1083.55 544.11 1082.85 544.29 1082.13 C544.95 1082.13 545.61 1082.13 546.29 1082.13 C548.18 1078.86 548.79 1075.85 549.29 1072.13 C549.95 1072.13 550.61 1072.13 551.29 1072.13 C551.62 1070.15 551.95 1068.17 552.29 1066.13 C552.62 1066.13 552.95 1066.13 553.29 1066.13 C553.6 1064.89 553.91 1063.65 554.23 1062.38 C555.29 1058.13 555.29 1058.13 555.86 1056.07 C556.46 1053.41 556.35 1050.85 556.29 1048.13 C556.95 1048.13 557.61 1048.13 558.29 1048.13 C558.43 1047.26 558.56 1046.39 558.7 1045.5 C558.87 1044.34 559.05 1043.19 559.23 1042 C559.4 1040.87 559.58 1039.73 559.76 1038.56 C560.07 1036.53 560.42 1034.51 560.82 1032.5 C561.42 1028.21 561.43 1024.02 561.43 1019.69 C561.43 1018.75 561.43 1017.8 561.43 1016.82 C561.44 1013.64 561.44 1010.45 561.44 1007.27 C561.44 1004.96 561.45 1002.66 561.45 1000.36 C561.46 994.02 561.47 987.69 561.47 981.35 C561.47 975.22 561.48 969.09 561.49 962.96 C561.51 946.54 561.52 930.12 561.53 913.7 C561.53 905.93 561.54 898.16 561.54 890.39 C561.56 863.8 561.57 837.2 561.58 810.6 C561.58 808.94 561.58 807.27 561.58 805.6 C561.58 804.77 561.58 803.94 561.58 803.09 C561.59 798.89 561.59 794.7 561.59 790.51 C561.59 789.26 561.59 789.26 561.59 787.98 C561.6 760.99 561.62 734.01 561.65 707.02 C561.69 678.48 561.71 649.94 561.71 621.4 C561.71 618.27 561.71 615.14 561.71 612 C561.71 611.23 561.71 610.46 561.71 609.67 C561.71 597.26 561.73 584.85 561.75 572.43 C561.77 559.96 561.78 547.48 561.77 535.01 C561.76 528.25 561.76 521.49 561.78 514.73 C561.8 508.54 561.8 502.36 561.78 496.17 C561.78 493.93 561.79 491.69 561.8 489.46 C561.89 471.84 559.89 456.62 547.29 443.13 C546.63 443.13 545.97 443.13 545.29 443.13 C544.96 442.14 544.63 441.15 544.29 440.13 C541.72 438.09 541.72 438.09 538.61 436.13 C537.05 435.11 537.05 435.11 535.47 434.07 C530.95 431.31 526.77 429 521.54 428 C519.21 427.55 517.42 427.19 515.29 426.13 C513.13 426.03 510.97 426 508.8 426 C508.13 425.99 507.45 425.99 506.76 425.99 C504.49 425.98 502.22 425.98 499.95 425.98 C498.33 425.98 496.71 425.98 495.08 425.97 C490.67 425.97 486.25 425.96 481.84 425.96 C478.16 425.96 474.48 425.96 470.8 425.95 C462.12 425.95 453.44 425.94 444.76 425.94 C435.79 425.94 426.82 425.93 417.86 425.92 C410.17 425.91 402.48 425.9 394.79 425.9 C390.19 425.9 385.6 425.9 381 425.89 C376.68 425.88 372.36 425.88 368.04 425.88 C366.45 425.89 364.86 425.88 363.27 425.88 C361.11 425.87 358.95 425.87 356.78 425.88 C355.57 425.88 354.36 425.88 353.11 425.88 C350.16 425.84 350.16 425.84 348.29 428.13 Z M537.29 1095.13 C538.29 1097.13 538.29 1097.13 538.29 1097.13 Z M612.29 1174.13 C611.96 1175.12 611.63 1176.11 611.29 1177.13 C612.28 1176.8 613.27 1176.47 614.29 1176.13 C614.29 1175.47 614.29 1174.81 614.29 1174.13 C613.63 1174.13 612.97 1174.13 612.29 1174.13 Z " fill="#F5A123" transform="translate(610.70703125,-0.12939453125)"/>
<path d="M0 0 C0.33 0 0.66 0 1 0 C1 183.15 1 366.3 1 555 C0.67 555 0.34 555 0 555 C0 371.85 0 188.7 0 0 Z " fill="#000000" transform="translate(107,474)"/>
<path d="M0 0 C54.45 0 108.9 0 165 0 C165 0.33 165 0.66 165 1 C110.55 1 56.1 1 0 1 C0 0.67 0 0.34 0 0 Z " fill="#000000" transform="translate(961,427)"/>
<path d="M0 0 C0.33 0 0.66 0 1 0 C1 37.95 1 75.9 1 115 C0.67 115 0.34 115 0 115 C0 77.05 0 39.1 0 0 Z " fill="#000000" transform="translate(960,428)"/>
<path d="M0 0 C0.33 0 0.66 0 1 0 C1 37.29 1 74.58 1 113 C0.67 113 0.34 113 0 113 C0 75.71 0 38.42 0 0 Z " fill="#000000" transform="translate(427,428)"/>
<path d="M0 0 C10.56 0 21.12 0 32 0 C32 0.33 32 0.66 32 1 C21.44 1 10.88 1 0 1 C0 0.67 0 0.34 0 0 Z " fill="#000000" transform="translate(624,107)"/>
<path d="M0 0 C5.28 0 10.56 0 16 0 C16 0.33 16 0.66 16 1 C10.72 1 5.44 1 0 1 C0 0.67 0 0.34 0 0 Z " fill="#000000" transform="translate(899,587)"/>
<path d="M0 0 C5.28 0 10.56 0 16 0 C16 0.33 16 0.66 16 1 C10.72 1 5.44 1 0 1 C0 0.67 0 0.34 0 0 Z " fill="#000000" transform="translate(365,587)"/>
<path d="M0 0 C0.33 0 0.66 0 1 0 C1 3.3 1 6.6 1 10 C0.67 10 0.34 10 0 10 C0 6.7 0 3.4 0 0 Z " fill="#000000" transform="translate(957,269)"/>
<path d="M0 0 C0.66 0.33 1.32 0.66 2 1 C1.01 1.66 0.02 2.32 -1 3 C-0.67 2.01 -0.34 1.02 0 0 Z " fill="#F6A224" transform="translate(1114,1133)"/>
<path d="M0 0 C0.66 0.33 1.32 0.66 2 1 C1.01 1.66 0.02 2.32 -1 3 C-0.67 2.01 -0.34 1.02 0 0 Z " fill="#F6A224" transform="translate(1134,1113)"/>
<path d="M0 0 C0.33 0 0.66 0 1 0 C1 1.65 1 3.3 1 5 C0.67 5 0.34 5 0 5 C0 3.35 0 1.7 0 0 Z " fill="#000000" transform="translate(430,283)"/>
<path d="M0 0 C1.65 0 3.3 0 5 0 C5 0.33 5 0.66 5 1 C3.35 1 1.7 1 0 1 C0 0.67 0 0.34 0 0 Z " fill="#000000" transform="translate(672,110)"/>
<path d="M0 0 C1.65 0 3.3 0 5 0 C5 0.33 5 0.66 5 1 C3.35 1 1.7 1 0 1 C0 0.67 0 0.34 0 0 Z " fill="#000000" transform="translate(603,110)"/>
<path d="M0 0 C4 1 4 1 4 1 Z " fill="#000000" transform="translate(574,117)"/>
<path d="M0 0 C3 1 3 1 3 1 Z " fill="#000000" transform="translate(1066,1275)"/>
<path d="M0 0 C3 1 3 1 3 1 Z " fill="#000000" transform="translate(211,1275)"/>
<path d="M0 0 C3 1 3 1 3 1 Z " fill="#000000" transform="translate(1121,1257)"/>
<path d="" fill="#000000" transform="translate(0,0)"/>
<path d="" fill="#000000" transform="translate(0,0)"/>
<path d="M0 0 C3 1 3 1 3 1 Z " fill="#000000" transform="translate(683,112)"/>
<path d="M0 0 C3 1 3 1 3 1 Z " fill="#000000" transform="translate(594,112)"/>
<path d="M0 0 C2 1 2 1 2 1 Z " fill="#000000" transform="translate(1079,1272)"/>
<path d="M0 0 C2 1 2 1 2 1 Z " fill="#000000" transform="translate(199,1272)"/>
<path d="M0 0 C2 1 2 1 2 1 Z " fill="#000000" transform="translate(1086,1270)"/>
<path d="M0 0 C2 1 2 1 2 1 Z " fill="#000000" transform="translate(192,1270)"/>
<path d="" fill="#000000" transform="translate(0,0)"/>
<path d="" fill="#000000" transform="translate(0,0)"/>
<path d="" fill="#000000" transform="translate(0,0)"/>
<path d="M0 0 C2 1 2 1 2 1 Z " fill="#000000" transform="translate(921,585)"/>
<path d="M0 0 C2 1 2 1 2 1 Z " fill="#000000" transform="translate(357,585)"/>
<path d="" fill="#000000" transform="translate(0,0)"/>
<path d="" fill="#000000" transform="translate(0,0)"/>
<path d="" fill="#000000" transform="translate(0,0)"/>
<path d="" fill="#000000" transform="translate(0,0)"/>
<path d="" fill="#000000" transform="translate(0,0)"/>
<path d="" fill="#000000" transform="translate(0,0)"/>
<path d="" fill="#000000" transform="translate(0,0)"/>
<path d="" fill="#000000" transform="translate(0,0)"/>
<path d="" fill="#000000" transform="translate(0,0)"/>
<path d="" fill="#000000" transform="translate(0,0)"/>
<path d="" fill="#000000" transform="translate(0,0)"/>
<path d="" fill="#000000" transform="translate(0,0)"/>
<path d="" fill="#000000" transform="translate(0,0)"/>
<path d="" fill="#000000" transform="translate(0,0)"/>
<path d="" fill="#F6A224" transform="translate(0,0)"/>
<path d="" fill="#F6A224" transform="translate(0,0)"/>
<path d="" fill="#000000" transform="translate(0,0)"/>
<path d="" fill="#F6A224" transform="translate(0,0)"/>
<path d="" fill="#000000" transform="translate(0,0)"/>
<path d="" fill="#F6A224" transform="translate(0,0)"/>
<path d="" fill="#F6A224" transform="translate(0,0)"/>
<path d="" fill="#F6A224" transform="translate(0,0)"/>
<path d="" fill="#F6A224" transform="translate(0,0)"/>
<path d="" fill="#F6A224" transform="translate(0,0)"/>
<path d="" fill="#F6A224" transform="translate(0,0)"/>
<path d="" fill="#000000" transform="translate(0,0)"/>
<path d="" fill="#F6A224" transform="translate(0,0)"/>
<path d="" fill="#000000" transform="translate(0,0)"/>
<path d="" fill="#000000" transform="translate(0,0)"/>
<path d="" fill="#000000" transform="translate(0,0)"/>
<path d="" fill="#F6A224" transform="translate(0,0)"/>
<path d="" fill="#000000" transform="translate(0,0)"/>
<path d="" fill="#000000" transform="translate(0,0)"/>
<path d="" fill="#000000" transform="translate(0,0)"/>
<path d="" fill="#000000" transform="translate(0,0)"/>
<path d="" fill="#000000" transform="translate(0,0)"/>
<path d="" fill="#000000" transform="translate(0,0)"/>
<path d="" fill="#000000" transform="translate(0,0)"/>
<path d="" fill="#000000" transform="translate(0,0)"/>
<path d="" fill="#000000" transform="translate(0,0)"/>
<path d="" fill="#000000" transform="translate(0,0)"/>
<path d="" fill="#000000" transform="translate(0,0)"/>
<path d="" fill="#000000" transform="translate(0,0)"/>
<path d="" fill="#000000" transform="translate(0,0)"/>
<path d="" fill="#000000" transform="translate(0,0)"/>
<path d="" fill="#000000" transform="translate(0,0)"/>
<path d="" fill="#000000" transform="translate(0,0)"/>
<path d="" fill="#F6A224" transform="translate(0,0)"/>
<path d="" fill="#000000" transform="translate(0,0)"/>
<path d="" fill="#000000" transform="translate(0,0)"/>
<path d="" fill="#000000" transform="translate(0,0)"/>
<path d="" fill="#000000" transform="translate(0,0)"/>
<path d="" fill="#000000" transform="translate(0,0)"/>
<path d="" fill="#000000" transform="translate(0,0)"/>
<path d="" fill="#000000" transform="translate(0,0)"/>
<path d="" fill="#F6A224" transform="translate(0,0)"/>
<path d="" fill="#F6A224" transform="translate(0,0)"/>
<path d="" fill="#000000" transform="translate(0,0)"/>
<path d="" fill="#F6A224" transform="translate(0,0)"/>
<path d="" fill="#000000" transform="translate(0,0)"/>
<path d="" fill="#000000" transform="translate(0,0)"/>
<path d="" fill="#000000" transform="translate(0,0)"/>
<path d="" fill="#000000" transform="translate(0,0)"/>
<path d="" fill="#000000" transform="translate(0,0)"/>
<path d="" fill="#F6A224" transform="translate(0,0)"/>
<path d="" fill="#F6A224" transform="translate(0,0)"/>
<path d="" fill="#F6A224" transform="translate(0,0)"/>
<path d="" fill="#F6A224" transform="translate(0,0)"/>
<path d="" fill="#F6A224" transform="translate(0,0)"/>
</svg>
