<svg width="344" height="226" viewBox="0 0 344 226" fill="none" xmlns="http://www.w3.org/2000/svg">
<path d="M280.97 141.735H59.4135C57.9011 141.733 56.4511 141.17 55.3817 140.168C54.3123 139.166 53.7107 137.807 53.709 136.39V8.38784C53.7102 7.34969 54.1509 6.35438 54.9344 5.62028C55.7179 4.88619 56.7801 4.47324 57.8881 4.47205H282.423C283.55 4.47325 284.631 4.89332 285.428 5.64011C286.225 6.38691 286.673 7.39943 286.674 8.45554V136.39C286.673 137.807 286.071 139.166 285.002 140.168C283.932 141.17 282.482 141.733 280.97 141.735Z" fill="#F2F2F2"/>
<path d="M272.888 134.166H66.4029C63.376 134.166 60.9136 132.005 60.9136 129.349V17.8835C60.9136 15.9139 62.7383 14.3115 64.9813 14.3115H274.242C276.522 14.3115 278.377 15.9403 278.377 17.9423V129.349C278.377 132.005 275.914 134.166 272.888 134.166Z" fill="white"/>
<path d="M286.595 8.08212H53.6289V5.36098C53.6311 3.93922 54.2351 2.57632 55.3084 1.57129C56.3818 0.566261 57.8368 0.00117462 59.3542 0H280.87C282.387 0.00116777 283.842 0.566252 284.915 1.57128C285.989 2.57632 286.593 3.93922 286.595 5.36098V8.08212Z" fill="#CCCCCC"/>
<path d="M64.0338 5.43668C64.8516 5.43668 65.5147 4.81546 65.5147 4.04915C65.5147 3.28284 64.8516 2.66162 64.0338 2.66162C63.2159 2.66162 62.5529 3.28284 62.5529 4.04915C62.5529 4.81546 63.2159 5.43668 64.0338 5.43668Z" fill="white"/>
<path d="M69.6549 5.43668C70.4727 5.43668 71.1358 4.81546 71.1358 4.04915C71.1358 3.28284 70.4727 2.66162 69.6549 2.66162C68.837 2.66162 68.174 3.28284 68.174 4.04915C68.174 4.81546 68.837 5.43668 69.6549 5.43668Z" fill="white"/>
<path d="M75.276 5.43668C76.0939 5.43668 76.7569 4.81546 76.7569 4.04915C76.7569 3.28284 76.0939 2.66162 75.276 2.66162C74.4581 2.66162 73.7951 3.28284 73.7951 4.04915C73.7951 4.81546 74.4581 5.43668 75.276 5.43668Z" fill="white"/>
<path d="M250.16 115.471H90.1433C88.5392 115.469 87.0014 114.872 85.8671 113.809C84.7329 112.746 84.0948 111.305 84.093 109.802V37.5161C84.0944 36.3921 84.5715 35.3144 85.4198 34.5196C86.2681 33.7248 87.4182 33.2777 88.6179 33.2764H251.613C252.832 33.2777 254 33.7319 254.862 34.5394C255.724 35.3469 256.209 36.4418 256.21 37.5838V109.802C256.208 111.305 255.57 112.746 254.436 113.809C253.302 114.872 251.764 115.469 250.16 115.471ZM88.6179 33.9242C87.6015 33.9253 86.6271 34.3041 85.9085 34.9775C85.1898 35.6508 84.7856 36.5638 84.7845 37.5161V109.802C84.7861 111.134 85.3512 112.41 86.3558 113.351C87.3604 114.292 88.7225 114.822 90.1433 114.823H250.16C251.581 114.822 252.943 114.292 253.947 113.351C254.952 112.41 255.517 111.134 255.519 109.802V37.5838C255.517 36.6136 255.106 35.6834 254.373 34.9973C253.641 34.3112 252.648 33.9253 251.613 33.9242H88.6179Z" fill="#CCCCCC"/>
<path d="M95.675 109.802H244.628C246.095 109.802 247.502 109.256 248.54 108.284C249.577 107.312 250.16 105.994 250.16 104.619V44.1909C250.16 42.8164 249.577 41.4981 248.54 40.5261C247.502 39.5541 246.095 39.0081 244.628 39.0081H95.675C94.2079 39.0081 92.8009 39.5541 91.7635 40.5261C90.7261 41.4981 90.1433 42.8164 90.1433 44.1909V104.619C90.1433 105.994 90.7261 107.312 91.7635 108.284C92.8009 109.256 94.2079 109.802 95.675 109.802Z" fill="#F2F2F2"/>
<path d="M112.588 56.589C114.306 56.589 115.699 55.2838 115.699 53.6737C115.699 52.0636 114.306 50.7583 112.588 50.7583C110.869 50.7583 109.476 52.0636 109.476 53.6737C109.476 55.2838 110.869 56.589 112.588 56.589Z" fill="#CCCCCC"/>
<path d="M112.588 67.6027C114.306 67.6027 115.699 66.2975 115.699 64.6873C115.699 63.0772 114.306 61.772 112.588 61.772C110.869 61.772 109.476 63.0772 109.476 64.6873C109.476 66.2975 110.869 67.6027 112.588 67.6027Z" fill="#CCCCCC"/>
<path d="M112.588 78.6163C114.306 78.6163 115.699 77.311 115.699 75.7009C115.699 74.0908 114.306 72.7855 112.588 72.7855C110.869 72.7855 109.476 74.0908 109.476 75.7009C109.476 77.311 110.869 78.6163 112.588 78.6163Z" fill="#CCCCCC"/>
<path d="M112.588 89.6299C114.306 89.6299 115.699 88.3247 115.699 86.7146C115.699 85.1045 114.306 83.7992 112.588 83.7992C110.869 83.7992 109.476 85.1045 109.476 86.7146C109.476 88.3247 110.869 89.6299 112.588 89.6299Z" fill="#CCCCCC"/>
<path d="M230.481 53.9976H128.146C128.054 53.9976 127.966 53.9635 127.901 53.9027C127.836 53.842 127.8 53.7596 127.8 53.6737C127.8 53.5878 127.836 53.5054 127.901 53.4446C127.966 53.3839 128.054 53.3497 128.146 53.3497H230.481C230.573 53.3497 230.661 53.3839 230.726 53.4446C230.791 53.5054 230.827 53.5878 230.827 53.6737C230.827 53.7596 230.791 53.842 230.726 53.9027C230.661 53.9635 230.573 53.9976 230.481 53.9976Z" fill="#CCCCCC"/>
<path d="M230.481 65.0113H128.146C128.054 65.0113 127.966 64.9771 127.901 64.9164C127.836 64.8556 127.8 64.7732 127.8 64.6873C127.8 64.6014 127.836 64.519 127.901 64.4583C127.966 64.3975 128.054 64.3634 128.146 64.3634H230.481C230.573 64.3634 230.661 64.3975 230.726 64.4583C230.791 64.519 230.827 64.6014 230.827 64.6873C230.827 64.7732 230.791 64.8556 230.726 64.9164C230.661 64.9771 230.573 65.0113 230.481 65.0113Z" fill="#CCCCCC"/>
<path d="M230.481 76.0248H128.146C128.054 76.0248 127.966 75.9907 127.901 75.9299C127.836 75.8692 127.8 75.7868 127.8 75.7009C127.8 75.615 127.836 75.5326 127.901 75.4718C127.966 75.4111 128.054 75.377 128.146 75.377H230.481C230.573 75.377 230.661 75.4111 230.726 75.4718C230.791 75.5326 230.827 75.615 230.827 75.7009C230.827 75.7868 230.791 75.8692 230.726 75.9299C230.661 75.9907 230.573 76.0248 230.481 76.0248Z" fill="#CCCCCC"/>
<path d="M230.481 87.0385H128.146C128.054 87.0385 127.966 87.0044 127.901 86.9436C127.836 86.8829 127.8 86.8005 127.8 86.7146C127.8 86.6286 127.836 86.5463 127.901 86.4855C127.966 86.4248 128.054 86.3906 128.146 86.3906H230.481C230.573 86.3906 230.661 86.4248 230.726 86.4855C230.791 86.5463 230.827 86.6286 230.827 86.7146C230.827 86.8005 230.791 86.8829 230.726 86.9436C230.661 87.0044 230.573 87.0385 230.481 87.0385Z" fill="#CCCCCC"/>
<path d="M147.506 98.0521H137.48C137.022 98.0516 136.583 97.8808 136.258 97.5771C135.934 97.2735 135.752 96.8618 135.752 96.4324V87.6863C135.752 87.2569 135.934 86.8452 136.258 86.5416C136.583 86.2379 137.022 86.0671 137.48 86.0667H147.506C147.965 86.0671 148.404 86.2379 148.728 86.5416C149.052 86.8452 149.234 87.2569 149.235 87.6863V96.4324C149.234 96.8618 149.052 97.2735 148.728 97.5771C148.404 97.8808 147.965 98.0516 147.506 98.0521Z" fill="#10624E"/>
<path d="M169.979 98.0521H159.953C159.494 98.0517 159.055 97.8809 158.731 97.5772C158.407 97.2736 158.225 96.8619 158.224 96.4325V76.6728C158.225 76.2433 158.407 75.8317 158.731 75.528C159.055 75.2244 159.494 75.0536 159.953 75.0531H169.979C170.437 75.0536 170.876 75.2244 171.201 75.528C171.525 75.8317 171.707 76.2433 171.707 76.6728V96.4325C171.707 96.8619 171.525 97.2736 171.201 97.5772C170.876 97.8809 170.437 98.0517 169.979 98.0521Z" fill="#10624E"/>
<path d="M192.797 98.0521H182.771C182.312 98.0516 181.873 97.8808 181.549 97.5772C181.225 97.2735 181.043 96.8619 181.042 96.4325V65.6591C181.043 65.2297 181.225 64.818 181.549 64.5144C181.873 64.2107 182.312 64.0399 182.771 64.0394H192.797C193.255 64.0399 193.694 64.2107 194.019 64.5144C194.343 64.818 194.525 65.2297 194.525 65.6591V96.4325C194.525 96.8619 194.343 97.2735 194.019 97.5772C193.694 97.8808 193.255 98.0516 192.797 98.0521Z" fill="#10624E"/>
<path d="M216.306 98.0521H206.28C205.822 98.0516 205.382 97.8808 205.058 97.5772C204.734 97.2736 204.552 96.8619 204.552 96.4325V54.9694C204.552 54.54 204.734 54.1283 205.058 53.8247C205.382 53.521 205.822 53.3502 206.28 53.3497H216.306C216.765 53.3502 217.204 53.521 217.528 53.8247C217.852 54.1283 218.034 54.54 218.035 54.9694V96.4325C218.034 96.8619 217.852 97.2736 217.528 97.5772C217.204 97.8808 216.765 98.0516 216.306 98.0521Z" fill="#10624E"/>
<path d="M230.481 98.0522H128.146C128.054 98.0522 127.966 98.018 127.901 97.9573C127.836 97.8965 127.8 97.8141 127.8 97.7282C127.8 97.6423 127.836 97.5599 127.901 97.4992C127.966 97.4384 128.054 97.4043 128.146 97.4043H230.481C230.573 97.4043 230.661 97.4384 230.726 97.4992C230.791 97.5599 230.827 97.6423 230.827 97.7282C230.827 97.8141 230.791 97.8965 230.726 97.9573C230.661 98.018 230.573 98.0522 230.481 98.0522Z" fill="#3F3D56"/>
<path d="M275.442 158.481C275.723 158.083 276.092 157.748 276.526 157.499C276.959 157.25 277.445 157.093 277.95 157.04C278.455 156.986 278.967 157.036 279.448 157.188C279.93 157.339 280.371 157.588 280.739 157.916L291.718 152.607L291.035 158.588L280.714 162.713C280.085 163.256 279.265 163.564 278.409 163.578C277.553 163.592 276.722 163.312 276.072 162.79C275.422 162.269 274.999 161.542 274.883 160.748C274.767 159.953 274.966 159.147 275.442 158.481Z" fill="#FFB8B8"/>
<path d="M284.889 160.711C284.64 160.528 284.456 160.278 284.362 159.995L283.489 157.352C283.395 157.065 283.397 156.759 283.495 156.474C283.594 156.189 283.783 155.939 284.038 155.758L292.936 149.46L302.573 132.709C302.977 132.222 303.479 131.814 304.051 131.509C304.622 131.204 305.253 131.007 305.906 130.93C306.559 130.853 307.222 130.897 307.857 131.06C308.491 131.223 309.086 131.502 309.606 131.88C310.125 132.258 310.561 132.729 310.887 133.264C311.212 133.8 311.422 134.391 311.504 135.003C311.587 135.615 311.539 136.236 311.365 136.831C311.191 137.425 310.894 137.982 310.49 138.469L305.007 149.311C303.344 152.602 300.461 155.215 296.896 156.663L286.467 160.901C286.267 160.983 286.05 161.023 285.832 161.021C285.613 161.019 285.398 160.974 285.199 160.888C285.089 160.841 284.984 160.782 284.889 160.711Z" fill="#3F3D56"/>
<path d="M310.732 125.718C315.422 125.718 319.224 122.156 319.224 117.762C319.224 113.368 315.422 109.806 310.732 109.806C306.043 109.806 302.241 113.368 302.241 117.762C302.241 122.156 306.043 125.718 310.732 125.718Z" fill="#FFB8B8"/>
<path d="M307.288 222.131L303.05 222.131L301.034 206.813L307.29 206.813L307.288 222.131Z" fill="#FFB8B8"/>
<path d="M300.022 220.996H308.196V225.818H294.875C294.875 225.185 295.008 224.558 295.267 223.973C295.525 223.388 295.904 222.856 296.382 222.408C296.86 221.96 297.428 221.605 298.052 221.363C298.677 221.121 299.346 220.996 300.022 220.996Z" fill="#2F2E41"/>
<path d="M321.117 222.132L316.879 222.131L314.863 206.813L321.119 206.814L321.117 222.132Z" fill="#FFB8B8"/>
<path d="M313.851 220.996H322.025V225.819H308.704C308.704 225.185 308.837 224.558 309.096 223.973C309.355 223.388 309.734 222.857 310.212 222.409C310.689 221.961 311.257 221.606 311.881 221.363C312.506 221.121 313.175 220.996 313.851 220.996Z" fill="#2F2E41"/>
<path d="M321.427 218.245L316.46 218.244C316.118 218.244 315.785 218.138 315.514 217.943C315.242 217.748 315.047 217.475 314.958 217.166L307.808 192.32C307.797 192.281 307.771 192.248 307.735 192.226C307.699 192.205 307.655 192.196 307.613 192.203C307.571 192.209 307.533 192.23 307.506 192.261C307.479 192.293 307.466 192.332 307.468 192.372L308.913 215.936C308.926 216.144 308.89 216.352 308.81 216.547C308.729 216.741 308.605 216.917 308.445 217.063C308.286 217.209 308.095 217.321 307.885 217.391C307.675 217.461 307.452 217.489 307.23 217.472L301.647 217.035C301.29 217.007 300.954 216.863 300.696 216.629C300.438 216.395 300.274 216.085 300.231 215.751L295.146 166.273L297.113 167.379L315.551 164.446L322.969 216.594C322.998 216.8 322.98 217.01 322.916 217.208C322.852 217.407 322.743 217.591 322.597 217.747C322.451 217.903 322.271 218.029 322.069 218.114C321.867 218.2 321.648 218.245 321.427 218.245Z" fill="#2F2E41"/>
<path d="M301.312 171.495C299.278 171.48 297.285 170.954 295.541 169.973C295.272 169.824 295.058 169.602 294.926 169.337C294.794 169.072 294.751 168.775 294.802 168.487C295.451 164.766 298.842 145.679 301.927 135.274C303.184 131.036 305.962 128.754 310.186 128.49C316.363 128.11 321.854 132.639 322.426 138.597C323.434 149.108 319.337 164.042 317.529 169.974C317.459 170.204 317.33 170.413 317.153 170.585C316.976 170.756 316.757 170.884 316.516 170.958C316.274 171.032 316.016 171.049 315.766 171.008C315.515 170.966 315.279 170.868 315.078 170.721L311.392 168.035C311.166 167.873 310.885 167.79 310.6 167.801C310.315 167.812 310.043 167.916 309.831 168.096C306.724 170.692 303.773 171.495 301.312 171.495Z" fill="#3F3D56"/>
<path opacity="0.2" d="M313.502 143.74L316.613 156.05L312.118 166.415L315.231 156.374L313.502 143.74Z" fill="black"/>
<path d="M315.578 124.305C316.333 124.318 317.084 124.191 317.786 123.93C318.095 123.819 318.416 123.727 318.725 123.615C321.45 122.629 323.245 119.91 323.309 117.174C323.374 114.437 321.861 111.781 319.616 110.031C317.37 108.281 314.461 107.382 311.548 107.174C308.411 106.95 304.878 107.695 303.124 110.143C302.658 110.795 302.331 111.586 302.608 112.373C302.69 112.61 302.838 112.823 303.037 112.99C303.82 113.643 304.6 113.152 305.398 113.109C306.495 113.049 307.481 113.881 307.835 114.856C308.189 115.831 308.033 116.904 307.747 117.898C307.529 118.496 307.392 119.117 307.338 119.747C307.315 120.063 307.378 120.38 307.522 120.666C307.666 120.953 307.886 121.2 308.16 121.385C308.846 121.773 309.746 121.548 310.432 121.161C311.118 120.773 311.711 120.234 312.452 119.949C313.193 119.664 314.188 119.727 314.619 120.36C314.756 120.59 314.849 120.841 314.893 121.101C315.28 122.751 315.191 122.654 315.578 124.305Z" fill="#2F2E41"/>
<path d="M302.416 211.018L249.244 193.669C248.332 193.37 247.583 192.744 247.163 191.929C246.742 191.113 246.684 190.175 247.001 189.32L260.818 152.146C261.052 151.52 261.541 151.006 262.178 150.717C262.816 150.428 263.55 150.388 264.219 150.606L319.188 168.542C319.868 168.765 320.426 169.231 320.739 169.839C321.053 170.446 321.096 171.146 320.86 171.783L307.058 208.916C306.739 209.771 306.071 210.473 305.201 210.867C304.331 211.261 303.329 211.315 302.416 211.018Z" fill="#E6E6E6"/>
<path d="M253.782 191.532L300.277 206.703C301.162 206.992 302.134 206.94 302.978 206.558C303.822 206.175 304.469 205.494 304.778 204.665L315.935 174.647C316.243 173.818 316.187 172.907 315.779 172.117C315.371 171.326 314.645 170.719 313.759 170.43L267.264 155.259C266.379 154.97 265.407 155.022 264.563 155.405C263.719 155.787 263.072 156.468 262.763 157.297L251.606 187.315C251.453 187.726 251.389 188.161 251.415 188.595C251.442 189.029 251.56 189.454 251.762 189.846C251.964 190.237 252.246 190.588 252.593 190.877C252.939 191.167 253.343 191.389 253.782 191.532Z" fill="white"/>
<path d="M265.457 170.442L263.155 169.691C263.03 169.65 262.928 169.564 262.87 169.453C262.812 169.341 262.804 169.213 262.848 169.096L263.65 166.938C263.693 166.821 263.785 166.725 263.904 166.672C264.023 166.618 264.16 166.61 264.285 166.651L266.587 167.402C266.712 167.443 266.815 167.529 266.872 167.64C266.93 167.752 266.938 167.88 266.894 167.997L266.092 170.155C266.049 170.272 265.957 170.367 265.838 170.421C265.719 170.475 265.582 170.483 265.457 170.442Z" fill="#10624E"/>
<path d="M263.38 176.032L261.077 175.281C260.952 175.24 260.85 175.154 260.792 175.043C260.735 174.931 260.727 174.803 260.77 174.686L261.572 172.528C261.616 172.411 261.707 172.315 261.826 172.261C261.945 172.207 262.082 172.2 262.207 172.241L264.51 172.992C264.634 173.033 264.737 173.118 264.794 173.23C264.852 173.342 264.86 173.47 264.817 173.587L264.015 175.744C263.971 175.861 263.88 175.957 263.761 176.011C263.642 176.065 263.505 176.073 263.38 176.032Z" fill="#3F3D56"/>
<path d="M261.302 181.622L258.999 180.87C258.875 180.829 258.772 180.744 258.715 180.632C258.657 180.521 258.649 180.392 258.692 180.275L259.494 178.118C259.538 178.001 259.629 177.905 259.748 177.851C259.867 177.797 260.004 177.79 260.129 177.83L262.432 178.582C262.557 178.623 262.659 178.708 262.717 178.82C262.774 178.931 262.782 179.06 262.739 179.177L261.937 181.334C261.893 181.451 261.802 181.547 261.683 181.601C261.564 181.655 261.427 181.662 261.302 181.622Z" fill="#CCCCCC"/>
<path d="M280.93 174.281L269.836 170.661C269.774 170.641 269.717 170.61 269.667 170.569C269.618 170.528 269.578 170.479 269.55 170.423C269.521 170.368 269.504 170.308 269.501 170.247C269.497 170.185 269.506 170.124 269.528 170.066C269.549 170.008 269.583 169.954 269.626 169.908C269.67 169.863 269.723 169.825 269.782 169.799C269.841 169.772 269.905 169.756 269.971 169.753C270.036 169.75 270.102 169.758 270.164 169.779L281.258 173.399C281.32 173.419 281.378 173.45 281.427 173.491C281.476 173.532 281.516 173.581 281.544 173.637C281.573 173.692 281.59 173.752 281.593 173.813C281.597 173.875 281.588 173.936 281.567 173.994C281.545 174.052 281.511 174.106 281.468 174.152C281.424 174.197 281.371 174.235 281.312 174.261C281.253 174.288 281.189 174.304 281.123 174.307C281.058 174.31 280.992 174.302 280.93 174.281Z" fill="#CCCCCC"/>
<path d="M278.852 179.871L267.758 176.251C267.633 176.21 267.53 176.125 267.473 176.013C267.415 175.901 267.407 175.773 267.451 175.656C267.494 175.539 267.586 175.443 267.705 175.389C267.824 175.335 267.961 175.328 268.086 175.368L279.181 178.989C279.243 179.009 279.3 179.04 279.349 179.081C279.398 179.122 279.438 179.171 279.466 179.226C279.495 179.282 279.512 179.342 279.515 179.403C279.519 179.464 279.51 179.526 279.489 179.584C279.467 179.642 279.433 179.695 279.39 179.741C279.346 179.787 279.293 179.824 279.234 179.851C279.175 179.878 279.111 179.893 279.045 179.897C278.98 179.9 278.914 179.892 278.852 179.871Z" fill="#CCCCCC"/>
<path d="M276.775 185.461L265.68 181.841C265.555 181.8 265.453 181.715 265.395 181.603C265.338 181.491 265.33 181.363 265.373 181.246C265.417 181.129 265.508 181.033 265.627 180.979C265.746 180.925 265.883 180.917 266.008 180.958L277.103 184.578C277.228 184.619 277.33 184.705 277.388 184.816C277.445 184.928 277.453 185.056 277.41 185.173C277.366 185.29 277.275 185.387 277.156 185.44C277.037 185.494 276.9 185.502 276.775 185.461Z" fill="#CCCCCC"/>
<path d="M306.3 188.489C306.38 188.308 306.456 188.123 306.526 187.935C307.438 185.482 307.273 182.789 306.066 180.45C304.859 178.112 302.71 176.318 300.092 175.463L296.445 185.274L306.3 188.489Z" fill="#10624E"/>
<path d="M295.385 185.871L299.031 176.06C297.104 175.431 295.023 175.344 293.044 175.811C291.065 176.277 289.274 177.276 287.894 178.684C286.513 180.092 285.603 181.848 285.275 183.735C284.946 185.622 285.215 187.558 286.047 189.304C286.879 191.05 288.238 192.529 289.957 193.56C291.675 194.591 293.679 195.128 295.719 195.105C297.76 195.082 299.748 194.499 301.44 193.43C303.132 192.361 304.452 190.851 305.239 189.086L295.385 185.871Z" fill="#3F3D56"/>
<path d="M308.44 171.797C308.399 171.323 308.469 170.845 308.646 170.399C308.823 169.953 309.102 169.548 309.464 169.214C309.826 168.879 310.262 168.623 310.741 168.464C311.22 168.304 311.73 168.245 312.236 168.29L317.378 157.765L320.78 162.866L315.376 172.079C315.238 172.87 314.795 173.587 314.132 174.093C313.468 174.599 312.629 174.859 311.774 174.825C310.919 174.79 310.108 174.462 309.493 173.905C308.879 173.347 308.504 172.597 308.44 171.797Z" fill="#FFB8B8"/>
<path d="M317.342 168.091C317.026 168.091 316.716 168 316.456 167.831L314.028 166.257C313.766 166.086 313.566 165.843 313.455 165.562C313.344 165.281 313.329 164.975 313.41 164.685L316.264 154.585L312.814 135.831C312.81 135.214 312.936 134.603 313.184 134.031C313.433 133.46 313.799 132.94 314.262 132.501C314.726 132.062 315.277 131.713 315.884 131.474C316.491 131.235 317.143 131.11 317.801 131.107C318.46 131.104 319.113 131.223 319.722 131.457C320.332 131.69 320.887 132.034 321.354 132.469C321.822 132.903 322.194 133.42 322.448 133.989C322.703 134.558 322.835 135.169 322.837 135.786L325.664 147.488C326.523 151.039 325.975 154.762 324.124 157.963L318.71 167.327C318.605 167.507 318.462 167.665 318.288 167.789C318.115 167.914 317.916 168.003 317.703 168.051C317.585 168.077 317.464 168.091 317.342 168.091Z" fill="#3F3D56"/>
<path d="M343.654 226H277.966C277.874 226 277.786 225.966 277.721 225.905C277.657 225.844 277.62 225.762 277.62 225.676C277.62 225.59 277.657 225.508 277.721 225.447C277.786 225.386 277.874 225.352 277.966 225.352H343.654C343.746 225.352 343.834 225.386 343.899 225.447C343.964 225.508 344 225.59 344 225.676C344 225.762 343.964 225.844 343.899 225.905C343.834 225.966 343.746 226 343.654 226Z" fill="#CCCCCC"/>
<path d="M169.594 221.97L173.833 221.969L175.849 206.652H169.593L169.594 221.97Z" fill="#A0616A"/>
<path d="M168.513 220.673L176.86 220.673C177.559 220.673 178.251 220.802 178.896 221.052C179.542 221.303 180.128 221.67 180.622 222.133C181.116 222.595 181.508 223.145 181.775 223.75C182.042 224.354 182.18 225.002 182.18 225.657V225.819L168.513 225.819L168.513 220.673Z" fill="#2F2E41"/>
<path d="M152.653 221.97L156.892 221.969L158.908 206.652H152.653L152.653 221.97Z" fill="#A0616A"/>
<path d="M151.572 220.673L159.919 220.673C160.618 220.673 161.31 220.802 161.956 221.052C162.601 221.303 163.187 221.67 163.681 222.133C164.175 222.595 164.567 223.145 164.834 223.75C165.102 224.354 165.239 225.002 165.239 225.657V225.819L151.573 225.819L151.572 220.673Z" fill="#2F2E41"/>
<path d="M170.44 115.921C175.13 115.921 178.932 112.359 178.932 107.965C178.932 103.571 175.13 100.009 170.44 100.009C165.75 100.009 161.949 103.571 161.949 107.965C161.949 112.359 165.75 115.921 170.44 115.921Z" fill="#A0616A"/>
<path d="M176.15 218.664H168.285C168.079 218.664 167.875 218.625 167.685 218.551C167.495 218.477 167.323 218.368 167.178 218.23C167.033 218.093 166.919 217.93 166.842 217.751C166.765 217.573 166.727 217.381 166.729 217.188L167.186 182.194C167.188 182.069 167.139 181.949 167.049 181.858C166.959 181.767 166.835 181.711 166.702 181.703C166.57 181.694 166.439 181.734 166.337 181.813C166.235 181.892 166.169 182.005 166.153 182.129L161.575 217.382C161.529 217.736 161.346 218.061 161.062 218.297C160.777 218.533 160.411 218.663 160.031 218.664H152.09C151.875 218.664 151.663 218.622 151.466 218.542C151.27 218.461 151.093 218.343 150.947 218.196C150.802 218.048 150.69 217.874 150.62 217.684C150.549 217.494 150.522 217.293 150.539 217.092L155.782 154.226L155.925 154.211L181.035 151.67L177.704 217.275C177.686 217.65 177.514 218.003 177.224 218.261C176.935 218.52 176.55 218.664 176.15 218.664Z" fill="#2F2E41"/>
<path d="M156.088 158.085C155.685 158.084 155.297 157.936 155.008 157.673C154.719 157.409 154.55 157.051 154.538 156.673C154.401 152.698 154.166 138.944 156.896 128.846C157.642 126.087 159.314 123.627 161.667 121.828C164.02 120.029 166.929 118.987 169.962 118.856C172.948 118.703 175.91 119.435 178.427 120.948C180.944 122.462 182.888 124.679 183.985 127.286C188.574 138.203 192.911 151.66 187.504 153.771C180.419 156.537 161.74 157.77 156.183 158.082C156.151 158.084 156.12 158.085 156.088 158.085Z" fill="#3F3D56"/>
<path d="M188.542 99.9237C188.675 100.052 188.82 100.171 188.973 100.278L188.081 116.321L184.374 118.099L186.507 123.693L193.397 121.142C193.954 120.936 194.424 120.566 194.738 120.088C195.051 119.611 195.19 119.051 195.135 118.492L193.33 100.294C193.921 99.881 194.363 99.3093 194.599 98.655C194.834 98.0007 194.851 97.2947 194.648 96.631C194.445 95.9673 194.031 95.3772 193.461 94.9393C192.891 94.5015 192.193 94.2365 191.458 94.1797C190.724 94.1229 189.988 94.277 189.349 94.6215C188.711 94.9659 188.199 95.4844 187.882 96.108C187.566 96.7315 187.459 97.4306 187.577 98.1122C187.695 98.7938 188.032 99.4257 188.542 99.9237Z" fill="#A0616A"/>
<path d="M188.152 116.918L190.76 123.863C190.834 124.06 190.862 124.271 190.842 124.479C190.821 124.688 190.753 124.89 190.642 125.072C190.531 125.253 190.379 125.41 190.197 125.532C190.016 125.654 189.808 125.738 189.588 125.778L181.897 127.173C180.816 127.523 179.631 127.457 178.602 126.99C177.572 126.522 176.783 125.692 176.406 124.68C176.03 123.667 176.097 122.557 176.593 121.591C177.089 120.625 177.974 119.883 179.053 119.528L185.958 116.113C186.156 116.015 186.374 115.958 186.597 115.946C186.821 115.935 187.044 115.968 187.252 116.045C187.46 116.121 187.648 116.239 187.803 116.389C187.959 116.54 188.078 116.72 188.152 116.918Z" fill="#3F3D56"/>
<path d="M151.761 99.9237C151.628 100.052 151.484 100.171 151.33 100.278L152.222 116.321L155.929 118.099L153.796 123.693L146.906 121.142C146.349 120.936 145.879 120.566 145.565 120.088C145.252 119.611 145.113 119.051 145.168 118.492L146.973 100.294C146.383 99.881 145.94 99.3093 145.705 98.655C145.469 98.0007 145.452 97.2947 145.655 96.631C145.858 95.9673 146.272 95.3772 146.842 94.9393C147.412 94.5015 148.111 94.2365 148.845 94.1797C149.579 94.1229 150.315 94.277 150.954 94.6215C151.592 94.9659 152.104 95.4844 152.421 96.108C152.737 96.7315 152.844 97.4306 152.726 98.1122C152.608 98.7938 152.272 99.4257 151.761 99.9237Z" fill="#A0616A"/>
<path d="M153.051 116.045C153.259 115.968 153.483 115.935 153.706 115.946C153.929 115.958 154.147 116.015 154.345 116.113L161.25 119.528C162.329 119.883 163.214 120.625 163.71 121.591C164.206 122.557 164.274 123.667 163.897 124.68C163.521 125.692 162.731 126.522 161.702 126.99C160.672 127.457 159.487 127.523 158.406 127.173L150.715 125.778C150.495 125.738 150.288 125.654 150.106 125.532C149.924 125.41 149.772 125.253 149.661 125.072C149.55 124.89 149.482 124.688 149.461 124.479C149.441 124.271 149.469 124.06 149.543 123.863L152.151 116.918C152.226 116.72 152.344 116.54 152.5 116.389C152.655 116.239 152.843 116.121 153.051 116.045Z" fill="#3F3D56"/>
<path d="M173.738 109.321C173.694 108.306 173.965 107.301 174.52 106.429C175.076 105.556 175.89 104.854 176.864 104.408C179.445 103.159 181.066 100.496 180.356 98.0646C179.446 94.952 174.925 92.9333 171.261 94.0042C170.27 94.334 169.314 94.7504 168.405 95.2479L166.012 96.45C164.989 96.9296 164.004 97.4749 163.061 98.0819C161.65 99.0563 160.544 100.368 159.859 101.88C159.173 103.391 158.934 105.048 159.165 106.676C159.636 109.84 161.848 112.742 164.876 114.729C166.033 115.54 167.371 116.097 168.789 116.359C170.24 116.583 171.856 116.328 172.917 115.483C174.575 114.161 174.404 111.948 173.867 110.1C173.796 109.845 173.753 109.584 173.738 109.321Z" fill="#2F2E41"/>
<path d="M202.597 226H136.909C136.817 226 136.729 225.966 136.664 225.905C136.599 225.844 136.563 225.762 136.563 225.676C136.563 225.59 136.599 225.508 136.664 225.447C136.729 225.386 136.817 225.352 136.909 225.352H202.597C202.689 225.352 202.777 225.386 202.841 225.447C202.906 225.508 202.943 225.59 202.943 225.676C202.943 225.762 202.906 225.844 202.841 225.905C202.777 225.966 202.689 226 202.597 226Z" fill="#CCCCCC"/>
<path d="M95.3899 166.906L41.1876 187.741C40.2567 188.097 39.2128 188.093 38.285 187.73C37.3572 187.366 36.6212 186.673 36.2384 185.801L19.6462 147.907C19.3673 147.268 19.3703 146.551 19.6546 145.915C19.9388 145.278 20.4811 144.772 21.1624 144.51L77.1971 122.971C77.8909 122.705 78.6689 122.708 79.3604 122.979C80.0519 123.25 80.6004 123.767 80.8857 124.416L97.4596 162.269C97.8403 163.141 97.8361 164.119 97.4481 164.989C97.0601 165.858 96.3199 166.548 95.3899 166.906Z" fill="#E6E6E6"/>
<path d="M43.1509 183.144L90.5471 164.926C91.4496 164.579 92.1681 163.911 92.5445 163.067C92.9209 162.224 92.9243 161.275 92.5541 160.43L79.156 129.83C78.9727 129.411 78.7031 129.031 78.3627 128.709C78.0223 128.388 77.6177 128.133 77.1721 127.959C76.7264 127.784 76.2484 127.693 75.7654 127.692C75.2823 127.69 74.8037 127.778 74.3568 127.95L26.9606 146.168C26.5137 146.34 26.1073 146.592 25.7646 146.911C25.4219 147.23 25.1496 147.609 24.9632 148.027C24.7768 148.444 24.6801 148.892 24.6784 149.345C24.6768 149.797 24.7703 150.246 24.9536 150.664L38.3517 181.264C38.5351 181.683 38.8046 182.063 39.145 182.384C39.4854 182.706 39.89 182.961 40.3357 183.135C40.7813 183.31 41.2593 183.401 41.7423 183.402C42.2254 183.404 42.704 183.316 43.1509 183.144Z" fill="white"/>
<path d="M78.8941 138.175L78.1973 138.443L78.2449 138.552L78.9417 138.284L78.8941 138.175Z" fill="#E6E6E6"/>
<path d="M76.8372 139.093L75.4295 139.634L75.3819 139.525L76.7896 138.984L76.8372 139.093ZM74.0218 140.175L72.6141 140.716L72.5664 140.607L73.9741 140.066L74.0218 140.175ZM71.2063 141.257L69.7986 141.798L69.751 141.69L71.1587 141.148L71.2063 141.257ZM68.3909 142.339L66.9832 142.881L66.9355 142.772L68.3432 142.231L68.3909 142.339ZM65.5754 143.422L64.1677 143.963L64.1201 143.854L65.5278 143.313L65.5754 143.422ZM62.76 144.504L61.3523 145.045L61.3046 144.936L62.7123 144.395L62.76 144.504ZM59.9445 145.586L58.5368 146.127L58.4892 146.018L59.8969 145.477L59.9445 145.586ZM57.1291 146.668L55.7214 147.209L55.6737 147.101L57.0814 146.559L57.1291 146.668ZM54.3136 147.75L52.9059 148.292L52.8583 148.183L54.266 147.642L54.3136 147.75ZM51.4982 148.833L50.0905 149.374L50.0429 149.265L51.4506 148.724L51.4982 148.833ZM48.6828 149.915L47.275 150.456L47.2274 150.347L48.6351 149.806L48.6828 149.915ZM45.8673 150.997L44.4596 151.538L44.412 151.429L45.8197 150.888L45.8673 150.997ZM43.0519 152.079L41.6442 152.62L41.5965 152.512L43.0042 151.97L43.0519 152.079ZM40.2364 153.161L38.8287 153.703L38.781 153.594L40.1888 153.053L40.2364 153.161ZM37.421 154.244L36.0133 154.785L35.9656 154.676L37.3733 154.135L37.421 154.244ZM34.6055 155.326L33.1978 155.867L33.1501 155.758L34.5579 155.217L34.6055 155.326Z" fill="#E6E6E6"/>
<path d="M31.7424 156.299L31.0456 156.567L31.0932 156.676L31.7901 156.408L31.7424 156.299Z" fill="#E6E6E6"/>
<path d="M60.4461 157.089L59.7493 157.357L59.7969 157.466L60.4937 157.198L60.4461 157.089Z" fill="#E6E6E6"/>
<path d="M58.41 157.999L57.0232 158.532L56.9756 158.423L58.3624 157.89L58.41 157.999ZM55.6364 159.065L54.2496 159.598L54.202 159.489L55.5888 158.956L55.6364 159.065ZM52.8628 160.131L51.476 160.664L51.4283 160.555L52.8151 160.022L52.8628 160.131ZM50.0892 161.197L48.7023 161.73L48.6547 161.621L50.0415 161.088L50.0892 161.197ZM47.3155 162.263L45.9287 162.796L45.881 162.688L47.2679 162.155L47.3155 162.263ZM44.5419 163.33L43.1551 163.863L43.1074 163.754L44.4942 163.221L44.5419 163.33ZM41.7683 164.396L40.3814 164.929L40.3338 164.82L41.7206 164.287L41.7683 164.396ZM38.9946 165.462L37.6078 165.995L37.5602 165.886L38.947 165.353L38.9946 165.462Z" fill="#E6E6E6"/>
<path d="M36.1734 166.419L35.4766 166.687L35.5242 166.796L36.221 166.528L36.1734 166.419Z" fill="#E6E6E6"/>
<path d="M48.9544 167.1L48.2576 167.368L48.3052 167.476L49.002 167.209L48.9544 167.1Z" fill="#E6E6E6"/>
<path d="M46.8784 168.025L45.4516 168.573L45.404 168.465L46.8308 167.916L46.8784 168.025ZM44.0248 169.122L42.5979 169.67L42.5503 169.561L43.9771 169.013L44.0248 169.122ZM41.1711 170.219L39.7443 170.767L39.6967 170.658L41.1235 170.11L41.1711 170.219Z" fill="#E6E6E6"/>
<path d="M38.2698 171.207L37.573 171.475L37.6206 171.584L38.3175 171.316L38.2698 171.207Z" fill="#E6E6E6"/>
<path d="M52.5319 175.27L51.8351 175.538L51.8827 175.647L52.5795 175.379L52.5319 175.27Z" fill="#E6E6E6"/>
<path d="M50.4559 176.196L49.0291 176.744L48.9815 176.635L50.4083 176.087L50.4559 176.196ZM47.6023 177.292L46.1755 177.841L46.1278 177.732L47.5546 177.184L47.6023 177.292ZM44.7486 178.389L43.3218 178.938L43.2742 178.829L44.701 178.281L44.7486 178.389Z" fill="#E6E6E6"/>
<path d="M41.8473 179.377L41.1505 179.645L41.1982 179.754L41.895 179.486L41.8473 179.377Z" fill="#E6E6E6"/>
<path d="M45.1634 178.327L85.3284 162.889C86.3005 162.514 87.0742 161.793 87.4797 160.885C87.8853 159.976 87.8896 158.954 87.4917 158.042L79.3765 139.508L79.2981 139.541L69.4416 161.622L62.1313 158.759C61.9964 158.705 61.8502 158.682 61.7041 158.691C61.558 158.699 61.416 158.739 61.2893 158.808C61.0989 158.915 60.9516 159.078 60.8702 159.272L55.7046 170.843L50.3597 168.75C50.2444 168.705 50.1207 168.681 49.9956 168.681C49.8706 168.68 49.7467 168.703 49.6311 168.747C49.5154 168.792 49.4102 168.857 49.3215 168.94C49.2328 169.022 49.1624 169.121 49.1142 169.229C49.0799 169.307 45.7843 176.883 45.1634 178.327Z" fill="#10624E"/>
<path d="M45.0398 178.502L44.924 178.457L49.057 169.197C49.1664 168.952 49.3748 168.758 49.6366 168.658C49.8983 168.557 50.1919 168.558 50.453 168.66L55.6924 170.713L60.8286 159.205C60.938 158.961 61.1464 158.767 61.4081 158.667C61.6699 158.566 61.9635 158.567 62.2246 158.669L69.4293 161.492L79.3365 139.295L79.4523 139.34L69.4967 161.646L62.1762 158.777C62.0621 158.733 61.9398 158.709 61.8161 158.709C61.6925 158.709 61.57 158.731 61.4556 158.775C61.3412 158.819 61.2372 158.884 61.1495 158.965C61.0618 159.047 60.9921 159.144 60.9444 159.251L55.7597 170.867L50.4046 168.769C50.1742 168.679 49.9151 168.678 49.6842 168.767C49.4533 168.855 49.2694 169.026 49.1728 169.242L45.0398 178.502Z" fill="#3F3D56"/>
<path d="M48.9782 167.978C49.4635 167.978 49.8569 167.609 49.8569 167.154C49.8569 166.7 49.4635 166.331 48.9782 166.331C48.4929 166.331 48.0995 166.7 48.0995 167.154C48.0995 167.609 48.4929 167.978 48.9782 167.978Z" fill="#3F3D56"/>
<path d="M60.4699 157.967C60.9552 157.967 61.3486 157.598 61.3486 157.144C61.3486 156.689 60.9552 156.32 60.4699 156.32C59.9846 156.32 59.5912 156.689 59.5912 157.144C59.5912 157.598 59.9846 157.967 60.4699 157.967Z" fill="#3F3D56"/>
<path d="M78.3636 139.024C78.8489 139.024 79.2423 138.655 79.2423 138.2C79.2423 137.746 78.8489 137.377 78.3636 137.377C77.8783 137.377 77.4849 137.746 77.4849 138.2C77.4849 138.655 77.8783 139.024 78.3636 139.024Z" fill="#3F3D56"/>
<path d="M29.1799 166.22C29.6367 166.007 30.0381 165.703 30.3558 165.329C30.6735 164.955 30.8999 164.52 31.0189 164.055C31.1378 163.59 31.1466 163.107 31.0445 162.638C30.9424 162.17 30.7319 161.728 30.4279 161.344L33.0377 137.437H27.3977L25.3237 160.781C24.6691 161.302 24.2414 162.03 24.1216 162.827C24.0017 163.624 24.198 164.435 24.6734 165.105C25.1487 165.776 25.87 166.26 26.7006 166.465C27.5311 166.67 28.4133 166.583 29.1799 166.22Z" fill="#FFB8B8"/>
<path d="M34.3584 124.243C38.7653 124.243 42.3378 120.895 42.3378 116.766C42.3378 112.637 38.7653 109.29 34.3584 109.29C29.9515 109.29 26.379 112.637 26.379 116.766C26.379 120.895 29.9515 124.243 34.3584 124.243Z" fill="#FFB8B8"/>
<path d="M35.8606 151.36C35.5412 151.359 35.2306 151.261 34.9766 151.08C34.7225 150.898 34.539 150.644 34.4542 150.355C33.8149 148.179 32.1516 144.5 29.5106 139.419C28.9147 138.27 28.5848 137.016 28.5423 135.74C28.4999 134.463 28.746 133.193 29.2645 132.012C29.783 130.831 30.5622 129.766 31.5509 128.886C32.5396 128.007 33.7155 127.334 35.0014 126.911C36.2201 126.508 37.5127 126.337 38.8027 126.411C40.0927 126.484 41.354 126.798 42.5119 127.336C43.6699 127.874 44.7009 128.624 45.544 129.542C46.3872 130.46 47.0253 131.526 47.4206 132.679C49.4677 138.692 49.3688 145.133 49.2313 147.623C49.2142 147.923 49.0927 148.21 48.8853 148.439C48.678 148.668 48.3962 148.826 48.0832 148.891L36.1741 151.328C36.0712 151.349 35.966 151.36 35.8606 151.36Z" fill="#FF6584"/>
<path d="M47.3931 222.354H51.3759L53.2709 207.959L47.3925 207.96L47.3931 222.354Z" fill="#FFB8B8"/>
<path d="M59.0577 225.819L46.5397 225.819L46.5395 221.288L54.221 221.287C54.8561 221.287 55.485 221.405 56.0718 221.632C56.6586 221.86 57.1918 222.194 57.641 222.615C58.0901 223.035 58.4464 223.535 58.6894 224.085C58.9325 224.634 59.0576 225.224 59.0577 225.819Z" fill="#2F2E41"/>
<path d="M7.56525 217.518L11.0557 219.315L20.118 207.557L14.967 204.904L7.56525 217.518Z" fill="#FFB8B8"/>
<path d="M16.0051 225.819L5.03567 220.169L7.36573 216.198L14.097 219.665C15.221 220.244 16.0535 221.218 16.4114 222.372C16.7692 223.526 16.6231 224.766 16.0051 225.819Z" fill="#2F2E41"/>
<path d="M47.207 214.364C46.8521 214.364 46.5094 214.243 46.2429 214.023C45.9764 213.804 45.8043 213.501 45.7586 213.171L40.7774 177.207C40.7554 177.048 40.6803 176.899 40.5629 176.782C40.4454 176.666 40.2916 176.587 40.1234 176.557C39.9552 176.527 39.7812 176.548 39.6262 176.616C39.4713 176.684 39.3434 176.797 39.2607 176.937L18.5012 212.226C18.3299 212.514 18.0539 212.735 17.7235 212.849C17.393 212.963 17.03 212.961 16.7005 212.845L12.1755 211.23C11.9935 211.165 11.8272 211.067 11.6863 210.941C11.5455 210.815 11.4329 210.664 11.3552 210.496C11.2776 210.329 11.2364 210.149 11.2341 209.966C11.2318 209.784 11.2685 209.603 11.3419 209.434L25.7225 176.334C25.759 176.25 25.7836 176.162 25.796 176.072C27.7438 161.947 32.6996 154.764 34.172 152.899C34.2796 152.762 34.3503 152.602 34.3784 152.434C34.4064 152.266 34.3909 152.094 34.3331 151.933L34.1307 151.364C34.0498 151.138 34.0333 150.897 34.0826 150.663C34.132 150.429 34.2455 150.212 34.412 150.032C39.7178 144.37 48.9655 147.459 49.0583 147.491L49.1046 147.507L49.1337 147.544C59.5031 160.869 55.6691 204.145 54.7953 212.685C54.7627 213.006 54.61 213.306 54.3642 213.532C54.1184 213.757 53.7954 213.894 53.4522 213.918L47.3206 214.361C47.2825 214.363 47.2446 214.364 47.207 214.364Z" fill="#2F2E41"/>
<path d="M65.3794 125.451C65.3396 125.615 65.3136 125.782 65.3017 125.95L51.3456 133.494L47.9534 131.664L44.337 136.1L50.0063 139.886C50.4643 140.192 51.0159 140.35 51.5781 140.337C52.1404 140.324 52.6831 140.141 53.1246 139.815L67.5158 129.177C68.1652 129.402 68.8725 129.437 69.5435 129.276C70.2145 129.116 70.8174 128.768 71.2721 128.278C71.7267 127.789 72.0116 127.181 72.0887 126.536C72.1659 125.892 72.0317 125.24 71.7039 124.668C71.3762 124.097 70.8705 123.632 70.2541 123.336C69.6377 123.041 68.9398 122.928 68.2532 123.013C67.5667 123.098 66.9239 123.376 66.4106 123.812C65.8972 124.248 65.5376 124.819 65.3794 125.451Z" fill="#FFB8B8"/>
<path d="M50.879 133.851L46.3684 139.328C46.2401 139.484 46.0774 139.612 45.8915 139.704C45.7055 139.796 45.5007 139.849 45.2909 139.859C45.0812 139.87 44.8714 139.838 44.6759 139.766C44.4803 139.694 44.3037 139.584 44.158 139.442L39.0517 134.474C38.2044 133.854 37.654 132.945 37.5211 131.945C37.3883 130.946 37.6838 129.938 38.3429 129.142C39.002 128.347 39.971 127.829 41.0372 127.701C42.1035 127.574 43.1801 127.848 44.031 128.464L50.4354 131.819C50.6188 131.915 50.7778 132.047 50.9018 132.206C51.0258 132.365 51.1117 132.547 51.1538 132.74C51.1959 132.933 51.1932 133.132 51.1458 133.324C51.0983 133.515 51.0074 133.695 50.879 133.851Z" fill="#FF6584"/>
<path d="M33.3967 143.367L26.1304 142.138C25.9237 142.103 25.7274 142.027 25.555 141.914C25.3825 141.802 25.238 141.656 25.1312 141.486C25.0244 141.317 24.9579 141.128 24.9361 140.932C24.9143 140.736 24.9378 140.538 25.0051 140.352L27.3606 133.817C27.5576 132.827 28.1655 131.95 29.0512 131.38C29.9369 130.809 31.028 130.59 32.0853 130.772C33.1426 130.954 34.0797 131.521 34.6912 132.35C35.3028 133.178 35.5388 134.2 35.3475 135.191L35.1177 142.062C35.111 142.259 35.0592 142.452 34.9657 142.629C34.8723 142.805 34.7393 142.96 34.576 143.084C34.4127 143.208 34.2228 143.297 34.0193 143.346C33.8158 143.395 33.6034 143.402 33.3967 143.367Z" fill="#FF6584"/>
<path d="M35.6213 115.047C37.6722 116.362 40.3651 117.714 42.4597 116.313C43.115 115.846 43.5909 115.192 43.8165 114.45C44.042 113.708 44.0049 112.917 43.7107 112.196C42.7077 109.509 39.952 108.326 37.3169 107.419C33.8912 106.24 30.1611 105.302 26.6246 106.146C23.0882 106.991 19.9627 110.199 20.6011 113.565C21.1145 116.273 23.8402 118.526 23.4533 121.251C23.0638 123.995 19.7711 125.439 16.8642 125.929C13.9572 126.419 10.7043 126.577 8.61518 128.533C5.95014 131.029 6.61565 135.49 9.12334 138.125C11.631 140.76 15.4153 141.954 19.0822 142.766C23.9407 143.842 29.1955 144.407 33.8098 142.622C38.4241 140.836 42.0149 136.03 40.6782 131.523C40.1136 129.62 38.7835 128.011 37.4981 126.445C36.2126 124.878 34.911 123.241 34.4207 121.319C34.0121 119.718 34.3145 117.858 35.4479 116.657C35.654 116.447 35.7838 116.181 35.8185 115.897C35.8532 115.614 35.791 115.327 35.641 115.078L35.6213 115.047Z" fill="#2F2E41"/>
<path d="M66.0342 226H0.345729C0.254036 226 0.166098 225.966 0.101261 225.905C0.0364246 225.844 0 225.762 0 225.676C0 225.59 0.0364246 225.508 0.101261 225.447C0.166098 225.386 0.254036 225.352 0.345729 225.352H66.0342C66.1259 225.352 66.2138 225.386 66.2786 225.447C66.3435 225.508 66.3799 225.59 66.3799 225.676C66.3799 225.762 66.3435 225.844 66.2786 225.905C66.2138 225.966 66.1259 226 66.0342 226Z" fill="#CCCCCC"/>
</svg>
