<svg width="250" height="92" viewBox="0 0 250 92" fill="none" xmlns="http://www.w3.org/2000/svg">
<path d="M29.0178 63.6905V15.1786H43.0059V5.50595H29.0178H18.1547C18.1547 5.50595 15.0297 5.50595 9.22616 5.50595C4.61307 5.50595 3.86902 7.58928 3.86902 10.7143C3.86902 11.9048 3.86902 15.1786 3.86902 15.1786H17.8571V63.6905H29.0178Z" fill="#36499B"/>
<path d="M58.9285 52.8274V27.5298C58.9285 23.5119 57.1428 21.5774 53.1249 21.5774H43.0059V31.25H46.7261C47.619 31.25 48.0654 31.6964 48.0654 32.5893V57.7381C48.0654 61.9048 49.8511 63.6905 53.869 63.6905H64.1368V54.1667H60.4166C59.3749 54.1667 58.9285 53.7202 58.9285 52.8274Z" fill="#36499B"/>
<path d="M58.0357 5.50595H48.363V15.0298H58.0357V5.50595Z" fill="#36499B"/>
<path d="M111.161 52.8274V36.756C111.161 26.0417 106.25 20.6845 96.4285 20.6845C88.3928 20.6845 84.2261 25.2976 82.2916 28.125V27.9762V26.7857C82.2916 23.5119 80.2083 21.7262 76.4881 21.7262H66.6666V31.25H70.3869C71.2797 31.25 71.7262 31.6964 71.7262 32.5893V63.6905H82.7381V44.3452C82.7381 42.4107 83.0357 40.625 83.4821 38.9881C84.9702 34.0774 88.9881 30.9524 94.0476 30.9524C98.3631 30.9524 100 33.1845 100 38.8393V57.7381C100 61.9048 101.786 63.6905 105.952 63.6905H116.22V54.1667H112.5C111.607 54.1667 111.161 53.7202 111.161 52.8274Z" fill="#36499B"/>
<path d="M150.446 37.7976L161.31 21.5774H148.81L140.327 34.8214C139.732 35.7143 138.542 36.1607 136.756 36.1607H134.077V10.7143C134.077 6.3988 131.845 5.65475 128.125 5.65475H117.857V15.1786H121.577C122.47 15.1786 122.917 15.625 122.917 16.5178V63.6905H134.077V45.6845H135.863C137.202 45.6845 138.542 45.8333 139.286 47.0238L146.131 59.9702C147.917 63.244 149.405 63.6905 152.976 63.6905H161.012V54.1667H157.887C156.101 54.1667 155.357 53.869 154.911 52.8274L150.298 43.8988C149.256 42.1131 148.363 41.2202 147.768 40.7738C148.363 40.4762 149.256 39.5833 150.446 37.7976Z" fill="#36499B"/>
<path d="M184.673 20.6845C172.173 20.6845 163.393 29.7619 163.393 42.7083C163.393 55.506 172.917 64.7321 185.863 64.7321C196.131 64.7321 202.381 58.631 202.679 58.3333L202.976 58.0357L198.214 50.1488L197.768 50.4464C197.768 50.4464 192.857 54.9107 186.607 54.9107C180.208 54.9107 175.595 50.8929 174.702 44.7917H202.976V44.3452C202.976 44.1964 203.274 41.6667 203.274 40.4762C203.274 28.7202 195.833 20.6845 184.673 20.6845ZM175.149 36.9048C176.339 32.2917 179.911 29.4643 184.673 29.4643C188.69 29.4643 191.667 32.5893 191.964 36.9048H175.149Z" fill="#36499B"/>
<path d="M237.649 21.2798C237.649 21.2798 236.607 21.131 235.714 21.131C230.357 21.131 225.595 24.5536 223.065 29.7619C223.065 29.6131 223.065 29.6131 223.065 29.4643V27.0833C223.065 23.3631 221.131 21.5774 217.113 21.5774H207.292V31.25H211.012C211.905 31.25 212.351 31.6964 212.351 32.5893V63.6905H223.363V46.875C223.363 44.6429 223.661 42.4107 224.256 40.3274C226.042 34.2262 231.101 31.994 235.119 31.994C236.458 31.994 237.5 32.1429 237.5 32.1429L237.946 32.2917V21.2798H237.649Z" fill="#36499B"/>
<path d="M123.065 86.0119H125V80.3571H131.845V78.7202H125V74.5536H132.738V72.7679H123.065V86.0119Z" fill="#77797B"/>
<path d="M138.988 75.8929C136.161 75.8929 133.928 78.125 133.928 80.9524C133.928 83.7798 136.161 86.0119 138.988 86.0119C141.815 86.0119 144.048 83.7798 144.048 80.8036C144.196 78.125 141.964 75.8929 138.988 75.8929ZM138.988 84.5238C137.202 84.5238 135.714 83.0357 135.714 81.1012C135.714 79.1667 137.053 77.6786 138.988 77.6786C140.774 77.6786 142.262 79.1667 142.262 81.1012C142.262 83.0357 140.923 84.5238 138.988 84.5238Z" fill="#77797B"/>
<path d="M152.827 81.6964C152.827 83.3333 151.786 84.375 150.298 84.375C148.809 84.375 147.917 83.4821 147.917 81.6964V76.0417H146.131V82.1428C146.131 84.5238 147.619 86.1607 150 86.1607C151.19 86.1607 152.232 85.7143 152.976 84.8214V86.0119H154.762V76.1905H152.976L152.827 81.6964Z" fill="#77797B"/>
<path d="M162.202 75.8929C161.012 75.8929 159.97 76.3393 159.226 77.2321V76.0417H157.44V85.8631H159.226V80.2083C159.226 78.5714 160.268 77.5298 161.756 77.5298C163.244 77.5298 164.137 78.4226 164.137 80.2083V85.8631H165.923V79.7619C166.071 77.5298 164.583 75.8929 162.202 75.8929Z" fill="#77797B"/>
<path d="M176.042 77.5298C175.149 76.4881 173.958 75.8929 172.619 75.8929C170.387 75.8929 167.857 77.6786 167.857 80.9524C167.857 84.2262 170.238 86.0119 172.619 86.0119C173.958 86.0119 175.149 85.4167 176.042 84.375V85.8631H177.827V72.1726H176.042V77.5298ZM176.19 81.1012C176.19 83.1845 174.553 84.5238 173.065 84.5238C171.28 84.5238 169.94 83.0357 169.94 81.1012C169.94 79.1667 171.28 77.6786 173.065 77.6786C174.553 77.6786 176.19 78.8691 176.19 81.1012Z" fill="#77797B"/>
<path d="M184.375 76.0417C182.887 76.0417 181.845 76.4881 180.803 76.7857L180.655 76.9345L181.25 78.4226L181.399 78.2738C182.44 77.8274 183.184 77.6786 184.226 77.6786C185.417 77.6786 186.756 78.125 186.756 80.0595C186.012 79.9107 185.268 79.7619 184.077 79.7619C181.399 79.7619 179.911 80.9524 179.911 83.0357C179.911 85.119 181.845 86.1607 183.631 86.1607C185.119 86.1607 186.161 85.5655 186.756 84.9702V86.0119H188.542V80.0595C188.542 78.869 188.244 77.8274 187.5 77.0833C186.905 76.3393 185.714 76.0417 184.375 76.0417ZM183.928 84.6726C182.887 84.6726 181.845 84.2262 181.845 83.0357C181.845 81.994 182.887 81.3988 184.375 81.3988C185.417 81.3988 186.309 81.5476 186.905 81.6964V82.2917C186.756 83.6309 185.565 84.6726 183.928 84.6726Z" fill="#77797B"/>
<path d="M193.303 73.3631H191.518V76.1905H190.178V77.8274H191.518V83.3333C191.518 85.1191 192.559 86.1607 194.345 86.1607C194.94 86.1607 195.536 86.0119 196.131 85.7143H196.28V84.0774L195.982 84.2262C195.536 84.375 195.238 84.5238 194.643 84.5238C193.75 84.5238 193.303 84.0774 193.303 83.1845V77.8274H196.28V76.1905H193.303V73.3631Z" fill="#77797B"/>
<path d="M200.298 76.1905H198.512V86.0119H200.298V76.1905Z" fill="#77797B"/>
<path d="M200.446 72.619H198.363V74.5536H200.446V72.619Z" fill="#77797B"/>
<path d="M207.738 75.8929C204.911 75.8929 202.678 78.125 202.678 80.9524C202.678 83.7798 204.911 86.0119 207.738 86.0119C210.565 86.0119 212.798 83.7798 212.798 80.8036C212.798 78.125 210.565 75.8929 207.738 75.8929ZM207.738 84.5238C205.952 84.5238 204.464 83.0357 204.464 81.1012C204.464 79.1667 205.803 77.6786 207.738 77.6786C209.524 77.6786 211.012 79.1667 211.012 81.1012C210.863 83.0357 209.524 84.5238 207.738 84.5238Z" fill="#77797B"/>
<path d="M219.643 75.8929C218.452 75.8929 217.411 76.3393 216.667 77.2321V76.0417H214.881V85.8631H216.667V80.2083C216.667 78.5714 217.708 77.5298 219.196 77.5298C220.684 77.5298 221.577 78.4226 221.577 80.2083V85.8631H223.363V79.7619C223.512 77.5298 222.024 75.8929 219.643 75.8929Z" fill="#77797B"/>
</svg>
