<svg width="400" height="392" viewBox="0 0 400 392" fill="none" xmlns="http://www.w3.org/2000/svg">
<g clip-path="url(#clip0_303_987)">
<path d="M123.521 287.014H73.4167C72.1535 287.014 71.1257 285.986 71.1257 284.723C71.1257 283.46 72.1535 282.432 73.4167 282.432H123.521C124.785 282.432 125.812 283.46 125.812 284.723C125.812 285.986 124.785 287.014 123.521 287.014Z" fill="#28CB8B"/>
<path d="M34.0367 299.277C34.0367 299.688 34.3672 300.019 34.7788 300.019H162.159C162.57 300.019 162.901 299.688 162.901 299.277C162.901 298.865 162.57 298.535 162.159 298.535H34.7788C34.3672 298.535 34.0367 298.865 34.0367 299.277Z" fill="#3F3D56"/>
<path d="M302.789 149.774C325.172 149.774 343.318 131.629 343.318 109.245C343.318 86.8614 325.172 68.7158 302.789 68.7158C280.405 68.7158 262.26 86.8614 262.26 109.245C262.26 131.629 280.405 149.774 302.789 149.774Z" fill="#FF6884"/>
<path d="M0 350.491C0 350.902 0.330488 351.233 0.742034 351.233H326.404C326.815 351.233 327.146 350.902 327.146 350.491C327.146 350.079 326.815 349.749 326.404 349.749H0.742034C0.330488 349.749 0 350.079 0 350.491Z" fill="#3F3D56"/>
<path d="M4.71067 300.383L3.66891 299.242L105.343 206.463L141.975 222.884L181.532 155.049L214.031 139.383L244.143 189.569C260.4 147.482 301.17 103.449 350.024 58.7745L351.226 59.7476C305.406 103.615 266.203 147.682 243.954 192.26L216.102 145.703C214.786 143.503 212.021 142.654 209.697 143.735C191.933 152.001 177.115 165.493 167.226 182.408L142.447 224.79L136.791 222.254C117.875 213.774 95.7294 217.328 80.4162 231.302L4.71067 300.383Z" fill="#3F3D56"/>
<path d="M352.316 67.2212L350.772 67.3284L348.282 61.9302L342.705 60.7974L342.488 59.2652L351.681 57.9589L352.316 67.2212Z" fill="#3F3D56"/>
<path d="M193.72 100.252L199.185 79.2407L220.477 78.2166L226.847 107.18L193.72 100.252Z" fill="#A0616A"/>
<path opacity="0.1" d="M194 100.535L199.465 79.5242L220.757 78.5L227.127 107.463L194 100.535Z" fill="black"/>
<path d="M207.73 90.9991C221.924 90.9991 233.43 79.4931 233.43 65.2997C233.43 51.1062 221.924 39.6002 207.73 39.6002C193.537 39.6002 182.031 51.1062 182.031 65.2997C182.031 79.4931 193.537 90.9991 207.73 90.9991Z" fill="#A0616A"/>
<path d="M221.909 70.7394C221.909 70.7394 212.147 51.396 200.708 52.5128C189.269 53.6296 183.243 54.9878 183.243 54.9878C183.243 54.9878 179.847 39.9223 195.833 34.1273C195.833 34.1273 175.508 14.091 199.707 4.26232C223.907 -5.56639 237.448 6.96887 237.448 6.96887C237.448 6.96887 255.361 24.8512 232.801 38.2167C232.801 38.2167 249.553 60.7502 229.27 79.3228C229.27 79.3228 233.807 64.2934 229.073 67.0651C224.34 69.8368 221.909 70.7394 221.909 70.7394Z" fill="#2F2E41"/>
<path d="M179.375 206.52L175.957 209.797L151.26 262.75L148.557 350.338H190.05L209.514 306.963L222.628 349.919H259.937L268.585 271.941L245.336 216.793L179.375 206.52Z" fill="#2F2E41"/>
<path d="M222.358 98.1167H194.648L164.507 114.337L171.535 145.695C171.535 145.695 169.913 164.619 173.698 178.676C177.483 192.733 175.861 211.116 175.861 211.116L245.336 216.793L247.499 152.994L246.418 110.282L222.358 98.1167Z" fill="#E6E6E6"/>
<path d="M169.102 114.607C169.102 114.607 152.342 115.148 149.638 125.961C146.935 136.774 144.772 192.463 144.772 192.463C144.772 192.463 146.394 225.507 164.507 209.796C182.619 194.085 180.997 146.506 180.997 146.506L169.102 114.607Z" fill="#E6E6E6"/>
<path d="M331.67 390.448H232.898C229.553 390.448 226.832 387.727 226.832 384.381V282.274C226.832 278.929 229.553 276.207 232.898 276.207H331.67C335.016 276.207 337.737 278.929 337.737 282.274V384.381C337.737 387.727 335.016 390.448 331.67 390.448Z" fill="white"/>
<path d="M331.67 391.072H232.898C229.209 391.072 226.208 388.071 226.208 384.381V282.274C226.208 278.585 229.209 275.584 232.898 275.584H331.67C335.359 275.584 338.361 278.585 338.361 282.274V384.381C338.361 388.071 335.359 391.072 331.67 391.072ZM232.898 276.831C229.897 276.831 227.455 279.273 227.455 282.274V384.381C227.455 387.383 229.897 389.825 232.898 389.825H331.67C334.672 389.825 337.114 387.383 337.114 384.381V282.274C337.114 279.273 334.672 276.831 331.67 276.831H232.898Z" fill="#3F3D56"/>
<path d="M286.182 363.623H278.041C277.05 363.623 276.244 363.001 276.244 362.236V327.187C276.244 326.421 277.05 325.799 278.041 325.799H286.182C287.173 325.799 287.98 326.421 287.98 327.187V362.236C287.98 363.001 287.173 363.623 286.182 363.623Z" fill="#28CB8B"/>
<path d="M259.268 342.969C258.467 342.969 257.816 343.471 257.816 344.09V362.197C257.816 362.815 258.467 363.318 259.268 363.318H267.409C268.21 363.318 268.861 362.815 268.861 362.197V344.09C268.861 343.471 268.21 342.969 267.409 342.969H259.268Z" fill="#28CB8B"/>
<path d="M304.956 363.623H296.815C295.824 363.623 295.017 363.001 295.017 362.236V304.796C295.017 304.031 295.824 303.409 296.815 303.409H304.956C305.947 303.409 306.753 304.031 306.753 304.796V362.236C306.753 363.001 305.947 363.623 304.956 363.623Z" fill="#28CB8B"/>
<path d="M129.771 111.844H120.472C119.34 111.844 118.419 111.133 118.419 110.259V70.2231C118.419 69.3491 119.34 68.6382 120.472 68.6382H129.771C130.904 68.6382 131.825 69.3491 131.825 70.2231V110.259C131.825 111.133 130.904 111.844 129.771 111.844Z" fill="#28CB8B"/>
<path d="M99.0275 88.2506C98.1129 88.2506 97.3686 88.8251 97.3686 89.5311V110.215C97.3686 110.921 98.1129 111.495 99.0275 111.495H108.327C109.241 111.495 109.986 110.921 109.986 110.215V89.5311C109.986 88.8251 109.241 88.2506 108.327 88.2506H99.0275Z" fill="#28CB8B"/>
<path d="M151.216 111.844H141.917C140.784 111.844 139.863 111.133 139.863 110.259V44.647C139.863 43.7731 140.784 43.0621 141.917 43.0621H151.216C152.348 43.0621 153.269 43.7731 153.269 44.647V110.259C153.269 111.133 152.348 111.844 151.216 111.844Z" fill="#28CB8B"/>
<path d="M267.142 291.064C271.959 290.603 275.275 284.094 274.551 276.523C274.303 273.495 273.333 270.57 271.723 267.993L270.795 259.425L270.937 259.382L273.27 218.754C273.813 209.308 270.073 200.026 262.869 193.891C258.583 190.242 254.011 188.395 251.071 193.005C246.193 200.656 252.512 232.192 256.661 250.121L258.27 269.281C257.177 272.117 256.78 275.174 257.111 278.195C257.834 285.763 262.326 291.525 267.142 291.064Z" fill="#A0616A"/>
<path d="M240.47 111.363C240.47 111.363 254.528 105.956 261.016 122.176C267.504 138.396 274.532 218.415 274.532 218.415L241.552 212.468L240.47 111.363Z" fill="#E6E6E6"/>
<path d="M47.4453 103.429H28.5168C27.2536 103.429 26.2258 102.402 26.2258 101.138C26.2258 99.8753 27.2536 98.8479 28.5168 98.8479H47.4453C48.7084 98.8479 49.7358 99.8752 49.7358 101.138C49.7358 102.402 48.7084 103.429 47.4453 103.429Z" fill="#E6E6E6"/>
<path d="M47.4453 70.9567H28.5168C27.2536 70.9567 26.2258 69.9288 26.2258 68.6657C26.2258 67.4025 27.2536 66.3751 28.5168 66.3751H47.4453C48.7084 66.3751 49.7358 67.4025 49.7358 68.6657C49.7358 69.9288 48.7084 70.9567 47.4453 70.9567Z" fill="#E6E6E6"/>
<path d="M47.4453 47.5388H28.5168C27.2536 47.5388 26.2258 46.511 26.2258 45.2478C26.2258 43.9846 27.2536 42.9573 28.5168 42.9573H47.4453C48.7084 42.9573 49.7358 43.9846 49.7358 45.2478C49.7358 46.511 48.7084 47.5388 47.4453 47.5388Z" fill="#E6E6E6"/>
<path d="M25.4665 111.958C25.4665 112.369 25.797 112.7 26.2085 112.7H153.589C154 112.7 154.331 112.369 154.331 111.958C154.331 111.546 154 111.216 153.589 111.216H26.2085C25.797 111.216 25.4665 111.546 25.4665 111.958Z" fill="#3F3D56"/>
<path d="M271.136 304.004C271.136 304.415 271.466 304.746 271.878 304.746H399.258C399.67 304.746 400 304.415 400 304.004C400 303.592 399.67 303.262 399.258 303.262H271.878C271.466 303.262 271.136 303.592 271.136 304.004Z" fill="#3F3D56"/>
<path d="M233.724 364.486C233.724 364.897 234.055 365.228 234.466 365.228H361.846C362.258 365.228 362.588 364.897 362.588 364.486C362.588 364.074 362.258 363.744 361.846 363.744H234.466C234.055 363.744 233.724 364.074 233.724 364.486Z" fill="#3F3D56"/>
<path d="M148.067 108.206C143.25 108.668 139.934 115.176 140.658 122.747C140.906 125.775 141.876 128.7 143.486 131.277L144.414 139.845L144.272 139.888L141.939 180.516C141.396 189.962 145.136 199.245 152.34 205.379C156.626 209.028 161.198 210.875 164.138 206.265C169.016 198.614 162.697 167.078 158.548 149.149L156.939 129.989C158.032 127.153 158.429 124.096 158.098 121.075C157.375 113.507 152.883 107.745 148.067 108.206Z" fill="#A0616A"/>
</g>
<defs>
<clipPath id="clip0_303_987">
<rect width="400" height="390.572" fill="white" transform="translate(0 0.5)"/>
</clipPath>
</defs>
</svg>
