<svg id="Camada_1" data-name="Camada 1" xmlns="http://www.w3.org/2000/svg" width="260" height="72" viewBox="0 0 260 72"><defs><style>.cls-1{fill:#f6a323;}.cls-2{fill:#41acbd;}.cls-3{fill:#1d1d1b;}</style></defs><path class="cls-1" d="M64.21364,53.501A11.17089,11.17089,0,0,1,80.161,43.39829,30.7053,30.7053,0,1,0,67.88415,61.77447,11.1494,11.1494,0,0,1,64.21364,53.501Zm-8.56041,2.9611h-10.905V30.68664l-10.55809.14872V21.76441H66.21129v9.071l-10.55806-.14872Z"/><circle class="cls-2" cx="75.38892" cy="53.501" r="8.6624"/><path class="cls-3" d="M102.71974,23.506l.03833.15331a.18312.18312,0,0,1-.05747.21078.53024.53024,0,0,1-.32576.07661H97.68036V36.20987a.26544.26544,0,0,1-.19159.28739l-.26825.05751q-.26856.07631-.26829-.19164V23.94673H92.27694a.5296.5296,0,0,1-.32576-.07661.18224.18224,0,0,1-.05747-.21078L91.932,23.506a.42772.42772,0,0,1,.45988-.28739h9.86794A.42817.42817,0,0,1,102.71974,23.506Z"/><path class="cls-3" d="M105.11478,36.36313V23.96591a.68872.68872,0,0,1,.6898-.78559,22.46129,22.46129,0,0,1,2.855-.15331,6.50972,6.50972,0,0,1,3.85138.88143,3.392,3.392,0,0,1,1.16882,2.89333,3.68068,3.68068,0,0,1-.759,2.47535,3.98067,3.98067,0,0,1-2.35293,1.18949l3.5972,5.67469q.17247.2986-.05627.37514l-.20687.03833q-.22591.07631-.41375-.19164l-3.679-5.76746h-3.96635v5.6142a.26544.26544,0,0,1-.19159.28739l-.26825.05751Q105.11446,36.63108,105.11478,36.36313Zm.72808-6.49559h3.564q3.54466,0,3.5448-3.06577a2.70521,2.70521,0,0,0-.96762-2.33769,5.561,5.561,0,0,0-3.20951-.70894q-1.24577,0-2.93165.1533Z"/><path class="cls-3" d="M115.3275,36.15236l6.03543-12.8571q.12306-.26809.15809-.26825.05255,0,.15805.282l6.074,12.8571q.13392.29728-.07448.35447l-.26045.03833a.27549.27549,0,0,1-.354-.19163l-1.8215-3.85556h-7.41592l-1.814,3.84928a.30835.30835,0,0,1-.38081.19164l-.24734-.03833Q115.15475,36.45685,115.3275,36.15236ZM124.917,31.822,121.53,24.653,118.15165,31.822Z"/><path class="cls-3" d="M140.35178,23.16085l.26824-.05719q.24891-.07637.24911.1916v13.1062q0,.23-.05743.22992c-.02574,0-.09644-.06374-.21138-.19131L130.57963,24.77069V36.20987a.2654.2654,0,0,1-.19159.28739l-.26825.05751q-.26856.07631-.26824-.19164V23.21864c0-.12756.0197-.19163.05984-.19163a1.84165,1.84165,0,0,1,.25932.23833L140.141,34.84643V23.44768A.26708.26708,0,0,1,140.35178,23.16085Z"/><path class="cls-3" d="M143.20653,35.34762l.07666-.17245q.1531-.26816.4982-.07666a7.57321,7.57321,0,0,0,3.60231.80478,3.42664,3.42664,0,0,0,2.32808-.75688,2.54323,2.54323,0,0,0,.87182-2.0215,1.90651,1.90651,0,0,0-.75688-1.485,6.88805,6.88805,0,0,0-1.83558-1.08831q-1.07874-.4464-2.17477-.90058a5.79387,5.79387,0,0,1-1.853-1.19186,2.34318,2.34318,0,0,1-.75688-1.73408,3.51045,3.51045,0,0,1,1.0635-2.72087,4.18243,4.18243,0,0,1,2.94122-.97723,8.10786,8.10786,0,0,1,2.7592.53653q.4212.1536.30653.45984l-.05751.13413q-.11486.24926-.55563.03832a7.656,7.656,0,0,0-2.491-.44069,3.47908,3.47908,0,0,0-2.37593.75688,2.646,2.646,0,0,0-.86225,2.09811,1.90657,1.90657,0,0,0,.76251,1.47842A7.09241,7.09241,0,0,0,146.537,29.1921q1.07694.4563,2.16279.91642a6.107,6.107,0,0,1,1.85834,1.19818,2.31149,2.31149,0,0,1,.77273,1.72241,3.32726,3.32726,0,0,1-1.09213,2.6538,4.5285,4.5285,0,0,1-3.06582.94847,8.68889,8.68889,0,0,1-3.83218-.90054Q143.07213,35.57768,143.20653,35.34762Z"/><path class="cls-3" d="M153.975,36.36313V24.02338q0-.78543.70894-.84306a22.56144,22.56144,0,0,1,2.83586-.15331,6.50929,6.50929,0,0,1,3.85133.88143A3.39179,3.39179,0,0,1,162.54,26.80177a3.407,3.407,0,0,1-1.188,2.87414,6.07267,6.07267,0,0,1-3.71724.91976H154.7031v5.6142a.26541.26541,0,0,1-.1916.28739l-.26824.05751Q153.97469,36.63108,153.975,36.36313Zm.72809-6.49559h2.93165a5.55831,5.55831,0,0,0,3.20947-.709,2.727,2.727,0,0,0,.96769-2.35679,2.70516,2.70516,0,0,0-.96769-2.33769,5.56089,5.56089,0,0,0-3.20947-.70894q-1.24572,0-2.93165.1533Z"/><path class="cls-3" d="M162.44437,36.15236l6.03543-12.8571q.12306-.26809.158-.26825.05261,0,.15813.282l6.074,12.8571q.1338.29728-.07456.35447l-.26045.03833a.2755.2755,0,0,1-.35391-.19163l-1.8215-3.85556h-7.41591l-1.814,3.84928a.30841.30841,0,0,1-.38085.19164l-.24726-.03833Q162.2716,36.45685,162.44437,36.15236Zm9.58947-4.3304-3.387-7.16894L165.26848,31.822Z"/><path class="cls-3" d="M177.06425,36.36313V23.96591a.6887.6887,0,0,1,.6898-.78559,22.46157,22.46157,0,0,1,2.855-.15331,6.50927,6.50927,0,0,1,3.85133.88143,3.39179,3.39179,0,0,1,1.16887,2.89333,3.68042,3.68042,0,0,1-.759,2.47535,3.98052,3.98052,0,0,1-2.35293,1.18949l3.59724,5.67469q.17241.2986-.0563.37514l-.20688.03833q-.22586.07631-.41375-.19164l-3.679-5.76746h-3.96635v5.6142a.2654.2654,0,0,1-.19159.28739l-.26825.05751Q177.06393,36.63108,177.06425,36.36313Zm.72809-6.49559h3.56394q3.54472,0,3.54488-3.06577a2.70514,2.70514,0,0,0-.9677-2.33769,5.56089,5.56089,0,0,0-3.20947-.70894q-1.24572,0-2.93165.1533Z"/><path class="cls-3" d="M188.944,23.21864h7.1854a.42825.42825,0,0,1,.45992.28739l.03828.15331a.18311.18311,0,0,1-.05751.21078.52993.52993,0,0,1-.32567.07661H189.0398v5.05856h6.16992q.34482,0,.3449.30658v.09579a.3.3,0,0,1-.3449.30658H189.0398v5.99742h7.20462a.53183.53183,0,0,1,.32567.07665.18336.18336,0,0,1,.05751.21078l-.03828.15327a.42824.42824,0,0,1-.45992.28743h-7.013q-.80473,0-.80474-.86225V23.88926Q188.31171,23.21881,188.944,23.21864Zm1.1305-1.93527,2.18434-1.74369a.37058.37058,0,0,1,.53657,0l2.18435,1.74369q.21064.15358.01914.3449l-.32576.364q-.19171.23-.479-.05747l-1.667-1.6287-1.66707,1.6287q-.2874.28738-.479.05747l-.32575-.364Q189.86365,21.43692,190.0745,21.28337Z"/><path class="cls-3" d="M209.98275,23.16085l.26825-.05719q.2489-.07637.2491.1916v13.1062q0,.23-.05743.22992c-.02574,0-.09644-.06374-.21138-.19131L200.21061,24.77069V36.20987a.26541.26541,0,0,1-.1916.28739l-.26824.05751q-.26857.07631-.26825-.19164V23.21864c0-.12756.01971-.19163.05984-.19163a1.84165,1.84165,0,0,1,.25932.23833L209.772,34.84643V23.44768A.26708.26708,0,0,1,209.98275,23.16085Z"/><path class="cls-3" d="M223.16537,35.59668l.01914.115q.09567.28744-.30653.40237a10.40811,10.40811,0,0,1-3.23827.51735,6.17453,6.17453,0,0,1-4.74238-1.73407,7.16675,7.16675,0,0,1-1.61913-5.06809,7.16733,7.16733,0,0,1,1.61913-5.06814,6.1757,6.1757,0,0,1,4.74238-1.73407,12.15214,12.15214,0,0,1,3.14239.479q.498.13429.40241.42156l-.05751.19159q-.07674.19177-.49813.09584a10.3056,10.3056,0,0,0-2.7592-.45988,5.82532,5.82532,0,0,0-4.37833,1.5329,6.28289,6.28289,0,0,0-1.485,4.54118q0,6.07434,5.8633,6.07407a10.86854,10.86854,0,0,0,2.58675-.40241Q223.06933,35.32847,223.16537,35.59668Z"/><path class="cls-3" d="M225.98192,23.16113l.26832-.05747q.24879-.07637.249.1916V36.20987a.26752.26752,0,0,1-.21074.28739l-.26825.05751q-.24926.07631-.2491-.19164V23.44856A.26733.26733,0,0,1,225.98192,23.16113Z"/><path class="cls-3" d="M228.72173,36.15236l6.03543-12.8571q.12306-.26809.15805-.26825.0526,0,.15814.282l6.074,12.8571q.1338.29728-.07457.35447l-.26044.03833a.27549.27549,0,0,1-.35391-.19163l-1.8215-3.85556h-7.41592L229.407,36.361a.30842.30842,0,0,1-.38086.19164l-.24725-.03833Q228.549,36.45685,228.72173,36.15236Zm9.58948-4.3304-3.387-7.16894L231.54584,31.822Z"/><path class="cls-3" d="M92.18114,51.80027l1.91549-10.7844a1.17059,1.17059,0,0,1,.28743-.63406,1.02768,1.02768,0,0,1,.594-.26889,26.36068,26.36068,0,0,1,3.928-.28828,6.044,6.044,0,0,1,3.69807.93883,2.52532,2.52532,0,0,1,.9389,2.62511,4.81409,4.81409,0,0,1-1.782,3.1041,2.86447,2.86447,0,0,1,1.1305,3.16154,3.91244,3.91244,0,0,1-1.964,2.77842,8.22163,8.22163,0,0,1-4.28253.99633,23.35443,23.35443,0,0,1-3.63191-.2491.93242.93242,0,0,1-.75419-.37361A1.5143,1.5143,0,0,1,92.18114,51.80027ZM95.9029,47.9298l-.41947,2.35108a8.1431,8.1431,0,0,0,1.72241.159,4.89319,4.89319,0,0,0,1.94485-.2779,1.23444,1.23444,0,0,0,.69937-.98676.88221.88221,0,0,0-.297-.94847,2.54133,2.54133,0,0,0-1.4275-.297Zm.45115-2.52933h1.66824a3.53047,3.53047,0,0,0,1.6766-.28739,1.45678,1.45678,0,0,0,.62272-1.09221.82167.82167,0,0,0-.40237-.9101,3.43993,3.43993,0,0,0-1.667-.297,9.17209,9.17209,0,0,0-1.45626.11108Z"/><path class="cls-3" d="M104.86575,52.50929l2.01161-11.49672a1.112,1.112,0,0,1,.28743-.62272,1.06479,1.06479,0,0,1,.594-.25867,29.56135,29.56135,0,0,1,4.17741-.30654,5.54894,5.54894,0,0,1,3.31487.83225,2.859,2.859,0,0,1,1.1305,2.45806,6.82758,6.82758,0,0,1-.75688,3.14689,4.25267,4.25267,0,0,1-2.38555,2.09482l1.95442,4.11877q.21066.441.12456.60358-.0862.163-.56553.182l-2.05087.11494a.75389.75389,0,0,1-.76673-.3449l-2.05082-4.21538h-1.32241l-.62425,3.48938a1.424,1.424,0,0,1-.31076.73919.93175.93175,0,0,1-.65927.2491L105.5346,53.37a.721.721,0,0,1-.61166-.17245A.87184.87184,0,0,1,104.86575,52.50929Zm4.22953-6.67407h1.78407a2.70444,2.70444,0,0,0,1.73616-.5003,1.67888,1.67888,0,0,0,.62364-1.38587q0-1.116-1.817-1.11618a11.41072,11.41072,0,0,0-1.817.15451Z"/><path class="cls-3" d="M116.05313,52.54758l8.45-12.30146q.28746-.40237.42156-.40233.15317,0,.26824.40329l4.11962,12.2631q.15323.44049.05759.59368-.09628.15358-.53633.17245l-1.89631.11494a1.27875,1.27875,0,0,1-.63233-.08622.67927.67927,0,0,1-.28711-.43113l-.50416-1.68678h-5.18786l-1.188,1.8203a.86316.86316,0,0,1-.80478.38327l-2.146-.115a.66952.66952,0,0,1-.33533-.08623.17413.17413,0,0,1-.03832-.21073A2.11444,2.11444,0,0,1,116.05313,52.54758Zm8.73893-3.77476-.89937-3.0083-1.99275,3.0083Z"/><path class="cls-3" d="M129.96665,51.762l.8431-1.57119q.32551-.63232.90054-.38327a10.24,10.24,0,0,0,3.65982.63237,4.63119,4.63119,0,0,0,1.8203-.28747q.65115-.28738.65143-.80474,0-.32563-.49813-.55571a4.48689,4.48689,0,0,0-1.23594-.33525,13.05635,13.05635,0,0,1-1.60948-.3449,13.47876,13.47876,0,0,1-1.60956-.54615,2.93623,2.93623,0,0,1-1.23587-.96762,2.58013,2.58013,0,0,1-.49821-1.59991,4.60954,4.60954,0,0,1,1.73408-3.75561,7.02406,7.02406,0,0,1,4.58907-1.41789,10.43659,10.43659,0,0,1,3.31491.55564.73965.73965,0,0,1,.48856.3449.7559.7559,0,0,1-.10537.594l-.74731,1.4754a.729.729,0,0,1-.99633.42155,8.62486,8.62486,0,0,0-2.5101-.38326,4.669,4.669,0,0,0-1.87781.31618q-.70907.31623-.70894.81439,0,.441.6898.71852a10.8633,10.8633,0,0,0,1.67656.49821q.98668.22043,1.97361.52692a4.01307,4.01307,0,0,1,1.67656.99633,2.33962,2.33962,0,0,1,.6898,1.7245,4.43219,4.43219,0,0,1-1.667,3.679,7.28393,7.28393,0,0,1-4.637,1.32209,14.225,14.225,0,0,1-4.59864-.88139Q129.64106,52.37517,129.96665,51.762Z"/><path class="cls-3" d="M145.7743,39.86953l1.4565-.07666a.72481.72481,0,0,1,.60357.17245.84209.84209,0,0,1,.06708.6898l-2.06312,11.64609a1.4258,1.4258,0,0,1-.31048.74305.93157.93157,0,0,1-.65923.2491l-1.43349.07666a.72084.72084,0,0,1-.61162-.17245.87145.87145,0,0,1-.05719-.68828L144.797,40.93592Q144.95026,39.92727,145.7743,39.86953Z"/><path class="cls-3" d="M152.44242,50.24822h6.0549a.851.851,0,0,1,.63229.17245q.1531.17253,0,.594l-.47906,1.30295a1.25306,1.25306,0,0,1-1.24544.91976h-6.88337a1.25888,1.25888,0,0,1-1.17031-.48743,2.4196,2.4196,0,0,1-.10384-1.59693l1.8014-10.21284a1.01359,1.01359,0,0,1,.97244-.97968l1.44934-.07658a.71986.71986,0,0,1,.60092.17245.84392.84392,0,0,1,.06644.6898Z"/></svg>