<svg id="Camada_1" data-name="Camada 1" xmlns="http://www.w3.org/2000/svg" width="260" height="72" viewBox="0 0 2691.7 745.48"><defs><style>.cls-1{fill:#f6a323;}.cls-2{fill:#41acbd;}.cls-3{fill:#1d1d1b;}</style></defs><path class="cls-1" d="M736.88,625.45c0-74.82,60.86-135.69,135.68-135.69a134.83,134.83,0,0,1,57.94,13,373.89,373.89,0,0,0,9-81.61c0-205.86-166.88-372.74-372.74-372.74S194,215.32,194,421.18,360.88,793.92,566.74,793.92a371,371,0,0,0,214.7-68A135.35,135.35,0,0,1,736.88,625.45ZM632.94,661.4H500.54V348.45l-128.18,1.81V240.12H761.13V350.26l-128.19-1.81Z" transform="translate(-194 -48.44)"/><circle class="cls-2" cx="678.56" cy="577.01" r="105.17"/><path class="cls-3" d="M1204.39,261.27l.46,1.86a2.21,2.21,0,0,1-.7,2.56,6.42,6.42,0,0,1-4,.93h-57V415.51c0,1.86-.77,3-2.32,3.49l-3.26.7c-2.17.61-3.26-.16-3.26-2.33V266.62H1077.6a6.47,6.47,0,0,1-4-.93,2.21,2.21,0,0,1-.69-2.56l.46-1.86q1.17-3.5,5.59-3.49h119.8Q1203.22,257.78,1204.39,261.27Z" transform="translate(-194 -48.44)"/><path class="cls-3" d="M1233.47,417.37V266.85q0-8.84,8.37-9.53a272.44,272.44,0,0,1,34.66-1.87q32.58,0,46.76,10.71t14.2,35.12q0,19.34-9.22,30.06t-28.57,14.44l43.68,68.9q2.09,3.61-.69,4.55l-2.51.47c-1.83.61-3.5-.16-5-2.33l-44.67-70h-48.15v68.16A3.23,3.23,0,0,1,1240,419l-3.26.7C1234.55,420.31,1233.47,419.54,1233.47,417.37Zm8.84-78.86h43.27q43,0,43-37.23,0-19.77-11.74-28.38t-39-8.61q-15.12,0-35.59,1.87Z" transform="translate(-194 -48.44)"/><path class="cls-3" d="M1357.46,414.81l73.28-156.1c1-2.17,1.63-3.26,1.92-3.26s1.06,1.15,1.92,3.43L1508.32,415c1.09,2.41.78,3.84-.9,4.3l-3.16.47a3.35,3.35,0,0,1-4.3-2.33l-22.12-46.81h-90l-22,46.74a3.73,3.73,0,0,1-4.62,2.32l-3-.46C1356.29,418.74,1356.06,417.28,1357.46,414.81Zm116.43-52.57-41.12-87-41,87Z" transform="translate(-194 -48.44)"/><path class="cls-3" d="M1661.29,257.08l3.25-.7c2-.61,3,.16,3,2.33V417.84c0,1.86-.24,2.79-.7,2.79-.31,0-1.17-.78-2.57-2.33L1542.64,276.62V415.51a3.23,3.23,0,0,1-2.33,3.49l-3.25.7c-2.18.61-3.26-.16-3.26-2.33V257.78c0-1.55.24-2.33.73-2.33a22.25,22.25,0,0,1,3.14,2.9L1658.73,399V260.56A3.24,3.24,0,0,1,1661.29,257.08Z" transform="translate(-194 -48.44)"/><path class="cls-3" d="M1696,405l.93-2.09q1.86-3.26,6-.93,18.38,9.76,43.74,9.77,17.68,0,28.27-9.19t10.58-24.55q0-10.23-9.19-18A83.67,83.67,0,0,0,1754,346.81l-26.41-10.93a70.57,70.57,0,0,1-22.5-14.47q-9.18-9-9.18-21.06,0-21.17,12.91-33t35.71-11.87q15.59,0,33.5,6.52,5.12,1.86,3.72,5.58l-.7,1.63q-1.39,3-6.75.47a92.84,92.84,0,0,0-30.24-5.36q-18.37,0-28.85,9.19T1704.79,299q0,10.08,9.25,18a86.46,86.46,0,0,0,22.34,13.4l26.26,11.12A73.9,73.9,0,0,1,1785.2,356q9.39,9,9.38,20.91,0,20.72-13.26,32.22t-37.22,11.52a105.44,105.44,0,0,1-46.53-10.94Q1694.32,407.83,1696,405Z" transform="translate(-194 -48.44)"/><path class="cls-3" d="M1826.69,417.37V267.55q0-9.54,8.6-10.23a273.83,273.83,0,0,1,34.44-1.87q32.57,0,46.76,10.71t14.19,35.12q0,23.73-14.43,34.9t-45.13,11.17h-35.59v68.16a3.23,3.23,0,0,1-2.33,3.49l-3.26.7C1827.77,420.31,1826.69,419.54,1826.69,417.37Zm8.84-78.86h35.59q27.23,0,39-8.61t11.75-28.62q0-19.77-11.75-28.38t-39-8.61q-15.12,0-35.59,1.87Z" transform="translate(-194 -48.44)"/><path class="cls-3" d="M1929.52,414.81l73.27-156.1c1-2.17,1.64-3.26,1.92-3.26.43,0,1.07,1.15,1.92,3.43L2080.38,415q1.62,3.61-.91,4.3l-3.16.47a3.35,3.35,0,0,1-4.3-2.33l-22.11-46.81h-90l-22,46.74a3.75,3.75,0,0,1-4.63,2.32l-3-.46C1928.35,418.74,1928.12,417.28,1929.52,414.81Zm116.42-52.57-41.12-87-41,87Z" transform="translate(-194 -48.44)"/><path class="cls-3" d="M2107,417.37V266.85q0-8.84,8.37-9.53a272.61,272.61,0,0,1,34.67-1.87q32.57,0,46.76,10.71T2211,301.28q0,19.34-9.22,30.06t-28.56,14.44l43.67,68.9q2.1,3.61-.68,4.55l-2.51.47c-1.83.61-3.51-.16-5-2.33l-44.67-70h-48.15v68.16a3.23,3.23,0,0,1-2.33,3.49l-3.25.7C2108.1,420.31,2107,419.54,2107,417.37Zm8.84-78.86h43.27q43,0,43-37.23,0-19.77-11.75-28.38t-39-8.61q-15.12,0-35.59,1.87Z" transform="translate(-194 -48.44)"/><path class="cls-3" d="M2251.25,257.78h87.24q4.43,0,5.59,3.49l.46,1.86a2.21,2.21,0,0,1-.7,2.56,6.42,6.42,0,0,1-4,.93h-87.47V328h74.91q4.18,0,4.18,3.72v1.16c-.15,2.49-1.55,3.73-4.18,3.73h-74.91v72.81h87.47a6.42,6.42,0,0,1,4,.93,2.22,2.22,0,0,1,.7,2.56l-.46,1.86q-1.17,3.49-5.59,3.49h-85.14q-9.78,0-9.77-10.47V265.92Q2243.58,257.79,2251.25,257.78Zm13.73-23.5,26.52-21.17a4.51,4.51,0,0,1,6.51,0l26.52,21.17c1.71,1.25,1.79,2.64.24,4.19l-4,4.42q-2.32,2.79-5.81-.7l-20.24-19.77-20.24,19.77q-3.49,3.5-5.82.7l-3.95-4.42C2263.19,236.92,2263.27,235.53,2265,234.28Z" transform="translate(-194 -48.44)"/><path class="cls-3" d="M2506.69,257.08l3.26-.7c2-.61,3,.16,3,2.33V417.84c0,1.86-.23,2.79-.7,2.79-.31,0-1.17-.78-2.56-2.33L2388,276.62V415.51c0,1.86-.77,3-2.32,3.49l-3.26.7c-2.17.61-3.26-.16-3.26-2.33V257.78c0-1.55.24-2.33.73-2.33a22.59,22.59,0,0,1,3.15,2.9L2504.13,399V260.56A3.24,3.24,0,0,1,2506.69,257.08Z" transform="translate(-194 -48.44)"/><path class="cls-3" d="M2666.74,408.06l.23,1.4q1.17,3.5-3.72,4.89a126.55,126.55,0,0,1-39.31,6.28q-37.93,0-57.58-21.06T2546.7,338q0-40.49,19.66-61.53t57.58-21.06q16.74,0,38.15,5.82,6,1.64,4.88,5.12l-.69,2.32c-.63,1.56-2.64,2-6.05,1.17q-19.55-5.58-33.5-5.59-35.13,0-53.16,18.62t-18,55.13q0,73.75,71.19,73.75,12.33,0,31.4-4.89Q2665.57,404.82,2666.74,408.06Z" transform="translate(-194 -48.44)"/><path class="cls-3" d="M2700.94,257.08l3.26-.7c2-.61,3,.16,3,2.33v156.8a3.25,3.25,0,0,1-2.56,3.49l-3.26.7c-2,.61-3-.16-3-2.33V260.57A3.25,3.25,0,0,1,2700.94,257.08Z" transform="translate(-194 -48.44)"/><path class="cls-3" d="M2734.2,414.81l73.28-156.1c1-2.17,1.64-3.26,1.92-3.26s1.06,1.15,1.92,3.43L2885.06,415q1.64,3.61-.9,4.3l-3.16.47a3.35,3.35,0,0,1-4.3-2.33l-22.12-46.81h-90l-22,46.74a3.73,3.73,0,0,1-4.62,2.32l-3-.46C2733,418.74,2732.81,417.28,2734.2,414.81Zm116.43-52.57-41.12-87-41,87Z" transform="translate(-194 -48.44)"/><path class="cls-3" d="M1076.44,604.8l23.25-130.94q.93-5.13,3.49-7.7a12.46,12.46,0,0,1,7.21-3.26,319.32,319.32,0,0,1,47.69-3.5q30,0,44.9,11.4t11.4,31.87q-4.65,24.9-21.63,37.69,18.38,12.33,13.72,38.38-3.72,21.63-23.84,33.73t-52,12.1a283.91,283.91,0,0,1-44.09-3q-6.82-.7-9.16-4.54T1076.44,604.8Zm45.18-47-5.09,28.55a98.67,98.67,0,0,0,20.91,1.93q16.51,0,23.61-3.37t8.5-12q1.4-7.9-3.61-11.51t-17.33-3.61Zm5.48-30.71h20.25q14.43,0,20.36-3.48t7.56-13.27q1.17-7.44-4.88-11t-20.24-3.6a111,111,0,0,0-17.68,1.35Z" transform="translate(-194 -48.44)"/><path class="cls-3" d="M1230.44,613.4l24.43-139.58c.61-3.41,1.78-5.93,3.49-7.56a12.84,12.84,0,0,1,7.21-3.14,358.67,358.67,0,0,1,50.72-3.72q26.52,0,40.24,10.1t13.73,29.85a82.93,82.93,0,0,1-9.19,38.2q-9.19,18-29,25.44l23.72,50c1.71,3.57,2.21,6,1.52,7.33s-3,2.06-6.87,2.21l-24.9,1.4q-7,.23-9.31-4.19l-24.9-51.18h-16l-7.58,42.36q-1.11,6.2-3.78,9c-1.78,1.86-4.44,2.87-8,3l-17.4.93c-3.71.16-6.19-.54-7.42-2.09S1229.66,617.42,1230.44,613.4Zm51.35-81h21.66q13.52,0,21.08-6.07t7.58-16.83q0-13.55-22.07-13.55A138.65,138.65,0,0,0,1288,497.8Z" transform="translate(-194 -48.44)"/><path class="cls-3" d="M1366.27,613.87l102.59-149.36q3.5-4.87,5.12-4.88,1.86,0,3.26,4.9l50,148.89q1.86,5.34.7,7.2c-.78,1.25-3,1.94-6.52,2.1l-23,1.39q-5.36.24-7.68-1c-1.55-.86-2.71-2.6-3.48-5.24l-6.12-20.48h-63l-14.42,22.1q-3.27,4.89-9.78,4.66l-26-1.4a8.1,8.1,0,0,1-4.07-1.05c-.7-.54-.85-1.39-.47-2.56A25.87,25.87,0,0,1,1366.27,613.87ZM1472.37,568l-10.92-36.53L1437.26,568Z" transform="translate(-194 -48.44)"/><path class="cls-3" d="M1535.2,604.33l10.23-19.08q4-7.66,10.94-4.65a124.26,124.26,0,0,0,44.43,7.68q14.19,0,22.1-3.49t7.91-9.77q0-4-6-6.75a54.26,54.26,0,0,0-15-4.07,158.39,158.39,0,0,1-19.54-4.19,161.36,161.36,0,0,1-19.55-6.63,35.59,35.59,0,0,1-15-11.75q-6.06-8-6.05-19.42,0-28.38,21.05-45.6t55.72-17.21a126.86,126.86,0,0,1,40.25,6.74c3.26,1.09,5.23,2.49,5.93,4.19s.27,4.11-1.28,7.21l-9.07,17.92q-3.72,7.91-12.1,5.11a104.76,104.76,0,0,0-30.47-4.65q-14.2,0-22.8,3.84t-8.61,9.89q0,5.36,8.37,8.72a132,132,0,0,0,20.36,6q12,2.67,24,6.4a48.75,48.75,0,0,1,20.36,12.09q8.37,8.39,8.37,20.94,0,28.62-20.24,44.67t-56.3,16.05q-24.88,0-55.83-10.7Q1531.25,611.77,1535.2,604.33Z" transform="translate(-194 -48.44)"/><path class="cls-3" d="M1727.12,459.94l17.68-.93q5.35-.22,7.33,2.1t.82,8.37l-25,141.4q-1.11,6.23-3.77,9t-8,3l-17.4.93q-5.57.24-7.43-2.09t-.69-8.36l24.66-140.51Q1717.12,460.65,1727.12,459.94Z" transform="translate(-194 -48.44)"/><path class="cls-3" d="M1808.08,586h73.51q5.82,0,7.68,2.1c1.24,1.39,1.24,3.8,0,7.21l-5.82,15.82q-4.18,11.16-15.12,11.16h-83.57q-10.62,0-14.21-5.91t-1.26-19.39l21.87-124q1.86-11.19,11.81-11.89l17.6-.93q5.31-.24,7.29,2.09t.81,8.38Z" transform="translate(-194 -48.44)"/></svg>