<svg id="Camada_1" data-name="Camada 1" xmlns="http://www.w3.org/2000/svg" width="265" height="73.38462" viewBox="0 0 265 73.38462"><defs><style>.cls-1{fill:#f6a323;}.cls-2{fill:#41acbd;}.cls-3{fill:#1d1d1b;}</style></defs><path class="cls-1" d="M65.4308,54.51967A11.38758,11.38758,0,0,1,81.68752,44.221a31.30089,31.30089,0,1,0-12.515,18.73263A11.36565,11.36565,0,0,1,65.4308,54.51967Zm-8.72645,3.01854H45.58778V31.26276l-10.76288.1516V22.16747H67.4672v9.24689l-10.76285-.1516Z"/><circle class="cls-2" cx="76.82284" cy="54.51965" r="8.83042"/><path class="cls-3" d="M104.6838,23.94287l.03907.15628a.18666.18666,0,0,1-.05858.21487.54048.54048,0,0,1-.33208.0781H99.54667v12.501a.27058.27058,0,0,1-.19531.293l-.27345.05862q-.27377.07779-.27349-.19535V24.39212h-4.766a.53978.53978,0,0,1-.33207-.0781.18576.18576,0,0,1-.05859-.21487l.03907-.15628a.436.436,0,0,1,.4688-.293H104.215A.43647.43647,0,0,1,104.6838,23.94287Z"/><path class="cls-3" d="M107.12529,37.04936V24.41167a.70208.70208,0,0,1,.70318-.80083,22.89743,22.89743,0,0,1,2.91038-.15628,6.63593,6.63593,0,0,1,3.92608.89853,3.45777,3.45777,0,0,1,1.19149,2.94944,3.752,3.752,0,0,1-.77369,2.52337,4.05793,4.05793,0,0,1-2.39857,1.21257l3.667,5.78475q.17582.30441-.05735.38242l-.21089.03907q-.23031.07779-.42178-.19535L111.91079,31.17H107.8675v5.72309a.27059.27059,0,0,1-.19531.293l-.27345.05862Q107.125,37.3225,107.12529,37.04936Zm.74221-6.62158h3.63311q3.61343,0,3.61356-3.12525a2.75768,2.75768,0,0,0-.98639-2.383,5.66891,5.66891,0,0,0-3.27176-.72269q-1.26995,0-2.98852.15628Z"/><path class="cls-3" d="M117.53611,36.8345l6.1525-13.10649q.12544-.27329.16116-.27345.05355,0,.16111.28751l6.19186,13.10649q.13651.303-.07593.36135l-.26549.03907a.28084.28084,0,0,1-.36082-.19535l-1.85683-3.93034h-7.55976l-1.84921,3.92394a.31433.31433,0,0,1-.3882.19535l-.25214-.03907Q117.36,37.1449,117.53611,36.8345Zm9.77552-4.41439-3.45272-7.308-3.44387,7.308Z"/><path class="cls-3" d="M143.04578,23.591l.27345-.0583q.25374-.07785.25394.19531V37.08843q0,.23442-.05855.23438c-.02623,0-.09831-.065-.21548-.195l-10.215-11.89573V36.89312a.27055.27055,0,0,1-.19531.293l-.27345.05862q-.27378.07779-.27345-.19535V23.64991c0-.13.02009-.19535.061-.19535a1.87645,1.87645,0,0,1,.26435.243L142.831,35.50324V23.88339A.27225.27225,0,0,1,143.04578,23.591Z"/><path class="cls-3" d="M145.95591,36.01415l.07814-.1758q.15608-.27334.50787-.07814a7.72022,7.72022,0,0,0,3.67218.82039,3.49312,3.49312,0,0,0,2.37324-.77156,2.59258,2.59258,0,0,0,.88873-2.06071,1.94351,1.94351,0,0,0-.77156-1.51378,7.02181,7.02181,0,0,0-1.87119-1.10942q-1.09965-.45505-2.21695-.918a5.90584,5.90584,0,0,1-1.88889-1.215,2.38862,2.38862,0,0,1-.77157-1.76771A3.57856,3.57856,0,0,1,147.04,24.45074a4.26353,4.26353,0,0,1,2.99827-.99618,8.26505,8.26505,0,0,1,2.81272.54694q.42936.15657.31248.46876l-.05863.13672q-.11708.2541-.56641.03907a7.8044,7.8044,0,0,0-2.53927-.44924,3.5466,3.5466,0,0,0-2.422.77156,2.69737,2.69737,0,0,0-.879,2.13881,1.94352,1.94352,0,0,0,.77731,1.50709,7.2299,7.2299,0,0,0,1.87544,1.125q1.09782.46515,2.20474.9342a6.22517,6.22517,0,0,1,1.89439,1.22142,2.35631,2.35631,0,0,1,.78771,1.75582,3.39181,3.39181,0,0,1-1.11331,2.70527,4.61636,4.61636,0,0,1-3.12528.96687,8.85755,8.85755,0,0,1-3.90652-.918Q145.8189,36.24868,145.95591,36.01415Z"/><path class="cls-3" d="M156.93326,37.04936V24.47026q0-.80067.7227-.85942a22.99917,22.99917,0,0,1,2.89086-.15628,6.63553,6.63553,0,0,1,3.926.89853,3.45757,3.45757,0,0,1,1.19153,2.94944,3.47306,3.47306,0,0,1-1.21105,2.92989A6.1905,6.1905,0,0,1,160.664,31.17h-2.98852v5.72309a.27055.27055,0,0,1-.19531.293l-.27345.05862Q156.93295,37.3225,156.93326,37.04936Zm.74221-6.62158H160.664a5.66609,5.66609,0,0,0,3.27172-.72274,2.77989,2.77989,0,0,0,.98647-2.40251,2.75761,2.75761,0,0,0-.98647-2.383,5.66876,5.66876,0,0,0-3.27172-.72269q-1.26989,0-2.98852.15628Z"/><path class="cls-3" d="M165.5669,36.8345,171.7194,23.728q.12545-.27329.16112-.27345.05363,0,.1612.28751l6.19185,13.10649q.13641.303-.076.36135l-.2655.03907a.28083.28083,0,0,1-.36077-.19535l-1.85684-3.93034H168.1147l-1.84921,3.92394a.31439.31439,0,0,1-.38824.19535l-.252-.03907Q165.39078,37.1449,165.5669,36.8345Zm9.77548-4.41439-3.45268-7.308-3.44391,7.308Z"/><path class="cls-3" d="M180.47037,37.04936V24.41167a.70206.70206,0,0,1,.70318-.80083,22.89732,22.89732,0,0,1,2.91038-.15628,6.63549,6.63549,0,0,1,3.926.89853,3.45757,3.45757,0,0,1,1.19154,2.94944,3.75177,3.75177,0,0,1-.7737,2.52337,4.05775,4.05775,0,0,1-2.39857,1.21257l3.667,5.78475q.17576.30441-.0574.38242l-.21089.03907q-.23024.07779-.42177-.19535L185.25586,31.17h-4.04328v5.72309a.27055.27055,0,0,1-.19531.293l-.27345.05862Q180.47,37.3225,180.47037,37.04936Zm.74221-6.62158h3.63307q3.61347,0,3.61364-3.12525a2.75761,2.75761,0,0,0-.98647-2.383,5.66882,5.66882,0,0,0-3.27173-.72269q-1.26987,0-2.98851.15628Z"/><path class="cls-3" d="M192.58055,23.64991h7.32477a.43654.43654,0,0,1,.46884.293l.039.15628a.18667.18667,0,0,1-.05863.21487.54017.54017,0,0,1-.332.0781H192.6782V29.5488h6.2896q.35151,0,.35159.31252V29.959a.30585.30585,0,0,1-.35159.31252h-6.2896v6.11376h7.34437a.54214.54214,0,0,1,.332.07814.18693.18693,0,0,1,.05863.21487l-.039.15624a.43653.43653,0,0,1-.46884.293h-7.149q-.82035,0-.82035-.879v-11.915Q191.936,23.65007,192.58055,23.64991Zm1.15242-1.97282,2.22671-1.7775a.37778.37778,0,0,1,.547,0l2.22671,1.7775q.21474.15657.01951.35159l-.33207.37111q-.19544.23442-.48828-.05859l-1.69932-1.66029-1.69941,1.66029q-.293.293-.48827.05859l-.33208-.37111Q193.518,21.83362,193.733,21.67709Z"/><path class="cls-3" d="M214.02738,23.591l.27345-.0583q.25374-.07785.25394.19531V37.08843q0,.23442-.05855.23438c-.02623,0-.09831-.065-.21548-.195L204.06569,25.23206V36.89312a.27055.27055,0,0,1-.19531.293l-.27345.05862q-.27378.07779-.27345-.19535V23.64991c0-.13.02009-.19535.061-.19535a1.87645,1.87645,0,0,1,.26435.243l10.16373,11.80573V23.88339A.27224.27224,0,0,1,214.02738,23.591Z"/><path class="cls-3" d="M227.4657,36.268l.01952.11721q.09753.293-.31248.41018a10.61,10.61,0,0,1-3.30108.52738,6.29421,6.29421,0,0,1-4.83436-1.76771,7.30567,7.30567,0,0,1-1.65054-5.16639,7.30627,7.30627,0,0,1,1.65054-5.16644,6.29542,6.29542,0,0,1,4.83436-1.76771,12.38783,12.38783,0,0,1,3.20334.48831q.5077.13689.41022.42973l-.05863.19531q-.07823.19549-.50779.0977a10.50572,10.50572,0,0,0-2.81272-.4688,5.93832,5.93832,0,0,0-4.46326,1.56264,6.40475,6.40475,0,0,0-1.51377,4.62926q0,6.19215,5.977,6.19189a11.07951,11.07951,0,0,0,2.63693-.41021Q227.3678,35.99464,227.4657,36.268Z"/><path class="cls-3" d="M230.33688,23.59128l.27354-.05858q.25361-.07785.25385.19531V36.89312a.27271.27271,0,0,1-.21483.293l-.27345.05862q-.2541.07779-.25393-.19535V23.88429A.27251.27251,0,0,1,230.33688,23.59128Z"/><path class="cls-3" d="M233.12984,36.8345l6.1525-13.10649q.12546-.27329.16112-.27345.05363,0,.1612.28751l6.19186,13.10649q.1364.303-.076.36135l-.2655.03907a.28084.28084,0,0,1-.36077-.19535l-1.85684-3.93034h-7.55976l-1.84921,3.92394a.31439.31439,0,0,1-.38824.19535l-.252-.03907Q232.95372,37.1449,233.12984,36.8345Zm9.77549-4.41439-3.45269-7.308-3.44391,7.308Z"/><path class="cls-3" d="M93.94079,52.78593l1.95264-10.99359a1.19327,1.19327,0,0,1,.293-.64636,1.04766,1.04766,0,0,1,.60552-.2741,26.872,26.872,0,0,1,4.00422-.29387,6.1613,6.1613,0,0,1,3.7698.957,2.57429,2.57429,0,0,1,.95711,2.676,4.90752,4.90752,0,0,1-1.81653,3.16431,2.92,2.92,0,0,1,1.15242,3.22286,3.98832,3.98832,0,0,1-2.00209,2.83232,8.38116,8.38116,0,0,1-4.3656,1.01566,23.807,23.807,0,0,1-3.70236-.25394.95048.95048,0,0,1-.76881-.38086A1.54363,1.54363,0,0,1,93.94079,52.78593Zm3.79394-3.94555-.4276,2.39668a8.30074,8.30074,0,0,0,1.75582.16211,4.98816,4.98816,0,0,0,1.98257-.28329,1.25842,1.25842,0,0,0,.71294-1.00591.89935.89935,0,0,0-.30276-.96687,2.59072,2.59072,0,0,0-1.45519-.30272Zm.4599-2.57838h1.7006a3.599,3.599,0,0,0,1.70912-.293,1.485,1.485,0,0,0,.6348-1.11339.83761.83761,0,0,0-.41017-.92776,3.50666,3.50666,0,0,0-1.69937-.30281,9.3492,9.3492,0,0,0-1.4845.11324Z"/><path class="cls-3" d="M106.87144,53.50871,108.92207,41.789a1.13364,1.13364,0,0,1,.293-.6348,1.08547,1.08547,0,0,1,.60553-.26369A30.13476,30.13476,0,0,1,114.079,40.578a5.65657,5.65657,0,0,1,3.37917.84839,2.91448,2.91448,0,0,1,1.15243,2.50574,6.96008,6.96008,0,0,1-.77156,3.20793,4.33517,4.33517,0,0,1-2.43182,2.13545l1.99233,4.19867q.21474.44953.127.61528-.08789.16616-.5765.18555l-2.09064.11717a.76853.76853,0,0,1-.78161-.35159l-2.0906-4.29714h-1.34806l-.63636,3.55706a1.4516,1.4516,0,0,1-.31678.75353.94988.94988,0,0,1-.67207.25393l-1.46068.07814a.73488.73488,0,0,1-.62352-.17579A.8887.8887,0,0,1,106.87144,53.50871Zm4.31157-6.80353h1.81867a2.75691,2.75691,0,0,0,1.76984-.51,1.71145,1.71145,0,0,0,.63574-1.41275q0-1.13768-1.85225-1.13783a11.63284,11.63284,0,0,0-1.85224.15751Z"/><path class="cls-3" d="M118.27582,53.54774l8.61391-12.54008q.293-.41018.42973-.41013.15615,0,.27345.41112l4.19953,12.501q.15619.449.05871.6052-.09814.15656-.54674.17579l-1.93309.11717a1.30342,1.30342,0,0,1-.64459-.0879.69236.69236,0,0,1-.29268-.43948l-.51394-1.7195h-5.28849l-1.21105,1.85561a.87989.87989,0,0,1-.82039.3907L118.41254,54.29a.68249.68249,0,0,1-.34183-.0879.17751.17751,0,0,1-.03907-.21483A2.15547,2.15547,0,0,1,118.27582,53.54774Zm8.90844-3.848-.91682-3.06666-2.0314,3.06666Z"/><path class="cls-3" d="M132.45921,52.7469l.85947-1.60167q.33182-.64459.918-.3907a10.43885,10.43885,0,0,0,3.73081.64464,4.72106,4.72106,0,0,0,1.8556-.29305q.66378-.293.66407-.82035,0-.33195-.50779-.5665a4.57462,4.57462,0,0,0-1.25992-.34175,13.30875,13.30875,0,0,1-1.6407-.35159,13.73957,13.73957,0,0,1-1.64078-.55674,2.99327,2.99327,0,0,1-1.25983-.98638,2.6302,2.6302,0,0,1-.50787-1.63095,4.699,4.699,0,0,1,1.7677-3.82846,7.16037,7.16037,0,0,1,4.67809-1.44539,10.63912,10.63912,0,0,1,3.37921.56642.75406.75406,0,0,1,.498.35159.77057.77057,0,0,1-.10742.60552l-.7618,1.504a.74311.74311,0,0,1-1.01566.42973,8.792,8.792,0,0,0-2.55879-.3907,4.75927,4.75927,0,0,0-1.91423.32232q-.72282.32235-.72269.83018,0,.44954.70318.73246a11.07518,11.07518,0,0,0,1.70908.50787q1.00582.2247,2.01188.53714a4.09093,4.09093,0,0,1,1.70909,1.01566,2.385,2.385,0,0,1,.70318,1.758,4.51817,4.51817,0,0,1-1.69933,3.75032,7.42524,7.42524,0,0,1-4.727,1.34774,14.50087,14.50087,0,0,1-4.68784-.89849Q132.1273,53.372,132.45921,52.7469Z"/><path class="cls-3" d="M148.57349,40.62377l1.48474-.07814a.73889.73889,0,0,1,.61529.17579.85847.85847,0,0,1,.06838.70318l-2.10315,11.872a1.45336,1.45336,0,0,1-.31649.75746.9497.9497,0,0,1-.672.25393l-1.4613.07814a.73473.73473,0,0,1-.62348-.17579.88831.88831,0,0,1-.0583-.70162l2.0701-11.79787Q147.73346,40.68264,148.57349,40.62377Z"/><path class="cls-3" d="M155.371,51.20377h6.17234a.86754.86754,0,0,1,.64456.1758q.15608.17587,0,.60552l-.48836,1.32823a1.27736,1.27736,0,0,1-1.26959.9376H153.413a1.28329,1.28329,0,0,1-1.193-.49689,2.46648,2.46648,0,0,1-.10586-1.62791l1.83634-10.41093a1.03326,1.03326,0,0,1,.9913-.99869l1.47745-.07806a.73384.73384,0,0,1,.61258.1758.86027.86027,0,0,1,.06773.70318Z"/></svg>