<svg id="Camada_1" data-name="Camada 1" xmlns="http://www.w3.org/2000/svg" width="260" height="72" viewBox="0 0 2697 745.48"><defs><style>.cls-1{fill:#f6a323;}.cls-2{fill:#41acbd;}.cls-3,.cls-5{font-size:232.64px;fill:#1d1d1b;}.cls-3{font-family:DHannaSoft-Regular4, DHannaSoft;}.cls-4{letter-spacing:-0.07em;}.cls-5{font-family:DHannaSoft-Regular17, DHannaSoft;}.cls-6{letter-spacing:-0.02em;}</style></defs><path class="cls-1" d="M736.88,625.45c0-74.82,60.86-135.69,135.68-135.69a134.83,134.83,0,0,1,57.94,13,373.89,373.89,0,0,0,9-81.61c0-205.86-166.88-372.74-372.74-372.74S194,215.32,194,421.18,360.88,793.92,566.74,793.92a371,371,0,0,0,214.7-68A135.35,135.35,0,0,1,736.88,625.45ZM632.94,661.4H500.54V348.45l-128.18,1.81V240.12H761.13V350.26l-128.19-1.81Z" transform="translate(-194 -48.44)"/><circle class="cls-2" cx="678.56" cy="577.01" r="105.17"/><text class="cls-3" transform="translate(871.04 369.87)">TRANS<tspan class="cls-4" x="740.95" y="0">P</tspan><tspan x="858.43" y="0">ARÊNCIA</tspan></text><text class="cls-5" transform="translate(871.04 573.81)">BR<tspan class="cls-6" x="307.78" y="0">A</tspan><tspan x="469" y="0">SIL</tspan></text></svg>