<svg id="Camada_1" data-name="Camada 1" xmlns="http://www.w3.org/2000/svg" width="260" height="72" viewBox="0 0 2691.69971 745.48285"><defs><style>.cls-1{fill:#f6a323;}.cls-2{fill:#41acbd;}.cls-3{fill:#1d1d1b;}</style></defs><path class="cls-1" d="M736.87706,625.44509c0-74.81661,60.86633-135.683,135.68-135.683a134.85064,134.85064,0,0,1,57.94041,13.02363,373.95086,373.95086,0,0,0,8.98559-81.60925c0-205.85947-166.88186-372.74133-372.74151-372.74133C360.88224,48.43519,194,215.31705,194,421.17652S360.88224,793.918,566.74152,793.918a371.02023,371.02023,0,0,0,214.7-68.02342A135.36686,135.36686,0,0,1,736.87706,625.44509Zm-103.93357,35.9513H500.54327V348.45118l-128.18789,1.80561V240.12464H761.131V350.25679l-128.18751-1.80561Z" transform="translate(-194 -48.43519)"/><circle class="cls-2" cx="678.55832" cy="577.00958" r="105.17187"/><path class="cls-3" d="M1204.38721,261.27l.46533,1.86133a2.22306,2.22306,0,0,1-.69775,2.55908,6.43705,6.43705,0,0,1-3.95508.93018h-56.99659V415.50977q0,2.79126-2.32617,3.48925l-3.25683.69825q-3.26075.9265-3.25733-2.32666v-150.75h-56.76367a6.42921,6.42921,0,0,1-3.95508-.93018,2.21242,2.21242,0,0,1-.69775-2.55908l.46533-1.86133q1.16163-3.48926,5.5835-3.48926h119.80859Q1203.22022,257.78076,1204.38721,261.27Z" transform="translate(-194 -48.43519)"/><path class="cls-3" d="M1233.46582,417.37061V266.85352q0-8.83813,8.375-9.53809a272.70669,272.70669,0,0,1,34.66309-1.86133q32.56713,0,46.76025,10.70166,14.187,10.70289,14.19092,35.12842,0,19.33447-9.21485,30.05371-9.21459,10.71973-28.56738,14.4419l43.67432,68.89746q2.094,3.62548-.68311,4.55468l-2.51172.46534q-2.74292.9265-5.02343-2.32666l-44.667-70.02393h-48.15625v68.16309q0,2.79126-2.32617,3.48925l-3.25683.69825Q1233.46191,420.62378,1233.46582,417.37061Zm8.83984-78.86426h43.271q43.03638,0,43.03809-37.22217,0-19.771-11.748-28.38232-11.75025-8.60376-38.96729-8.60743-15.12523,0-35.59375,1.86133Z" transform="translate(-194 -48.43519)"/><path class="cls-3" d="M1357.46045,414.81152l73.27734-156.10058q1.49415-3.25488,1.91944-3.25684.63793,0,1.91894,3.42432l73.7461,156.10058q1.626,3.60938-.9043,4.30371l-3.16211.46534a3.34475,3.34475,0,0,1-4.29736-2.32666l-22.11524-46.811h-90.03808l-22.02442,46.73486a3.74371,3.74371,0,0,1-4.62353,2.32667l-3.00293-.46534Q1355.363,418.50855,1357.46045,414.81152Zm116.42822-52.57617-41.12256-87.03955L1391.749,362.23535Z" transform="translate(-194 -48.43519)"/><path class="cls-3" d="M1661.28516,257.0791l3.25683-.69433q3.022-.92726,3.02442,2.32617v159.125q0,2.792-.69727,2.7915c-.3125,0-1.1709-.77392-2.56641-2.32275L1542.63965,276.62451V415.50977q0,2.79126-2.32617,3.48925l-3.25684.69825q-3.26074.9265-3.25684-2.32666V257.78076c0-1.54883.23926-2.32666.72657-2.32666a22.36166,22.36166,0,0,1,3.14843,2.89356l121.05176,140.60839V260.56152A3.24259,3.24259,0,0,1,1661.28516,257.0791Z" transform="translate(-194 -48.43519)"/><path class="cls-3" d="M1695.94531,405.041l.93067-2.09375q1.85888-3.25562,6.04882-.93067,18.375,9.77051,43.73633,9.771,17.67627,0,28.26563-9.18946,10.582-9.1875,10.585-24.54345,0-10.23414-9.18945-18.0293a83.62712,83.62712,0,0,0-22.28614-13.21338q-13.09716-5.41992-26.40429-10.93408a70.343,70.343,0,0,1-22.49707-14.4707q-9.19336-8.95312-9.18946-21.05371,0-21.16626,12.91211-33.03467,12.91113-11.86451,35.71-11.86475,15.583,0,33.5,6.51416,5.11377,1.86476,3.72168,5.583l-.69824,1.62842q-1.39453,3.02637-6.74609.46533a92.95162,92.95162,0,0,0-30.24317-5.35059q-18.3794,0-28.84668,9.18946-10.46924,9.19262-10.46875,25.47363,0,10.08691,9.25782,17.94971a86.11091,86.11091,0,0,0,22.33691,13.39843q13.0752,5.54,26.25879,11.12647a74.14337,74.14337,0,0,1,22.5625,14.54736q9.37939,8.96412,9.38183,20.91211,0,20.70851-13.25976,32.22022-13.26123,11.51586-37.22266,11.51562a105.4939,105.4939,0,0,1-46.52734-10.93359Q1694.31348,407.83422,1695.94531,405.041Z" transform="translate(-194 -48.43519)"/><path class="cls-3" d="M1826.6875,417.37061V267.55127q0-9.53613,8.60742-10.23584a273.92077,273.92077,0,0,1,34.43067-1.86133q32.56786,0,46.75976,10.70166,14.18849,10.70289,14.19141,35.12842,0,23.729-14.42383,34.89551-14.42724,11.16649-45.13184,11.167h-35.59375v68.16309q0,2.79126-2.32617,3.48925l-3.25683.69825Q1826.6836,420.62378,1826.6875,417.37061Zm8.83984-78.86426h35.59375q27.21826,0,38.9668-8.60791,11.74512-8.60376,11.749-28.61426,0-19.771-11.749-28.38232-11.74952-8.60376-38.9668-8.60743-15.1245,0-35.59375,1.86133Z" transform="translate(-194 -48.43519)"/><path class="cls-3" d="M1929.51562,414.81152,2002.793,258.71094q1.49414-3.25488,1.91894-3.25684.63868,0,1.91993,3.42432L2080.37793,414.979q1.62451,3.60938-.90527,4.30371l-3.16211.46534a3.34483,3.34483,0,0,1-4.29688-2.32666l-22.11523-46.811h-90.03809l-22.02441,46.73486a3.74448,3.74448,0,0,1-4.624,2.32667l-3.002-.46534Q1927.418,418.50855,1929.51562,414.81152Zm116.42774-52.57617-41.12207-87.03955-41.01758,87.03955Z" transform="translate(-194 -48.43519)"/><path class="cls-3" d="M2107.01855,417.37061V266.85352q0-8.83813,8.375-9.53809a272.7068,272.7068,0,0,1,34.66309-1.86133q32.56786,0,46.75977,10.70166,14.18847,10.70289,14.1914,35.12842,0,19.33447-9.21484,30.05371-9.21387,10.71973-28.56738,14.4419l43.6748,68.89746q2.09327,3.62548-.68359,4.55468l-2.51172.46534q-2.7422.9265-5.02344-2.32666l-44.667-70.02393H2115.8584v68.16309q0,2.79126-2.32617,3.48925l-3.25684.69825Q2107.01465,420.62378,2107.01855,417.37061Zm8.83985-78.86426h43.27051q43.0371,0,43.03906-37.22217,0-19.771-11.749-28.38232-11.74952-8.60376-38.9668-8.60743-15.12452,0-35.59375,1.86133Z" transform="translate(-194 -48.43519)"/><path class="cls-3" d="M2251.25293,257.78076h87.23926q4.4165,0,5.584,3.48926l.46485,1.86133a2.2232,2.2232,0,0,1-.69825,2.55908,6.43366,6.43366,0,0,1-3.9541.93018H2252.416v61.417h74.91015q4.18653,0,4.1875,3.72217v1.16308q-.23437,3.72436-4.1875,3.72217H2252.416v72.81592h87.47265a6.45688,6.45688,0,0,1,3.9541.93066,2.22624,2.22624,0,0,1,.69825,2.55908l-.46485,1.86084q-1.16748,3.49-5.584,3.48975h-85.14551q-9.77051,0-9.77051-10.46875V265.92285Q2243.57617,257.78271,2251.25293,257.78076Zm13.72559-23.49658,26.5205-21.17041a4.49929,4.49929,0,0,1,6.51465,0l26.52051,21.17041q2.55762,1.86474.23242,4.1875l-3.95508,4.41992q-2.32762,2.792-5.81543-.69775l-20.23925-19.77442-20.24024,19.77442q-3.48925,3.48925-5.81543.69775l-3.95508-4.41992Q2262.41846,236.14844,2264.97852,234.28418Z" transform="translate(-194 -48.43519)"/><path class="cls-3" d="M2506.68848,257.0791l3.25683-.69433q3.022-.92726,3.02442,2.32617v159.125q0,2.792-.69727,2.7915c-.3125,0-1.1709-.77392-2.56641-2.32275L2388.043,276.62451V415.50977q0,2.79126-2.32617,3.48925l-3.25684.69825q-3.26075.9265-3.25684-2.32666V257.78076c0-1.54883.23926-2.32666.72657-2.32666a22.36166,22.36166,0,0,1,3.14843,2.89356l121.05176,140.60839V260.56152A3.24259,3.24259,0,0,1,2506.68848,257.0791Z" transform="translate(-194 -48.43519)"/><path class="cls-3" d="M2666.74121,408.06494l.23242,1.396q1.16163,3.49-3.72168,4.88525a126.36667,126.36667,0,0,1-39.3164,6.28125q-37.92187,0-57.57813-21.05371-19.66113-21.052-19.6582-61.53271,0-40.4795,19.6582-61.53321,19.65674-21.052,57.57813-21.05371,16.75048,0,38.15234,5.81592,6.04688,1.63036,4.88574,5.11816l-.69824,2.32618q-.93163,2.32836-6.04785,1.16357-19.54248-5.58326-33.5-5.5835-35.13135,0-53.1582,18.61133-18.03076,18.61451-18.0293,55.13526,0,73.74975,71.1875,73.74658,12.32813,0,31.40625-4.88574Q2665.5752,404.8086,2666.74121,408.06494Z" transform="translate(-194 -48.43519)"/><path class="cls-3" d="M2700.9375,257.08252l3.25781-.69775q3.0205-.92726,3.02344,2.32617V415.50977a3.24793,3.24793,0,0,1-2.55859,3.48925l-3.25684.69825q-3.02637.9265-3.02441-2.32666V260.57227A3.24556,3.24556,0,0,1,2700.9375,257.08252Z" transform="translate(-194 -48.43519)"/><path class="cls-3" d="M2734.20215,414.81152l73.27734-156.10058q1.49415-3.25488,1.91895-3.25684.63867,0,1.91992,3.42432L2885.06445,414.979q1.62452,3.60938-.90527,4.30371l-3.16211.46534a3.34482,3.34482,0,0,1-4.29687-2.32666l-22.11524-46.811h-90.03808l-22.02442,46.73486a3.74447,3.74447,0,0,1-4.624,2.32667l-3.002-.46534Q2732.1045,418.50855,2734.20215,414.81152Zm116.42773-52.57617-41.12207-87.03955-41.01758,87.03955Z" transform="translate(-194 -48.43519)"/><path class="cls-3" d="M1076.436,604.7959l23.25634-130.93555q.92726-5.12988,3.48975-7.69824a12.47751,12.47751,0,0,1,7.21191-3.26465,320.05622,320.05622,0,0,1,47.69092-3.5q30.01026,0,44.89893,11.39844,14.88573,11.40234,11.39941,31.87207-4.656,24.89647-21.63525,37.6875,18.375,12.334,13.72558,38.38476-3.72437,21.63574-23.84521,33.7334-20.12549,12.09814-51.99512,12.09668a283.543,283.543,0,0,1-44.0957-3.02441q-6.81593-.69727-9.15674-4.53613Q1075.03638,613.17187,1076.436,604.7959Zm45.18652-46.99219-5.09277,28.54492a98.86458,98.86458,0,0,0,20.9121,1.93067q16.51539,0,23.6128-3.374,7.0935-3.36913,8.49121-11.98047,1.396-7.90575-3.606-11.51562-5.00536-3.60351-17.33154-3.60547Zm5.47754-30.709h20.25439q14.42139,0,20.356-3.48926,5.93188-3.48925,7.56055-13.26074,1.16161-7.44288-4.88526-11.04981-6.05272-3.605-20.23974-3.60644a111.36176,111.36176,0,0,0-17.68067,1.34863Z" transform="translate(-194 -48.43519)"/><path class="cls-3" d="M1230.44238,613.4043l24.42334-139.584q.92725-5.11377,3.48975-7.56054a12.9278,12.9278,0,0,1,7.21191-3.14063,358.90875,358.90875,0,0,1,50.71875-3.72168q26.521,0,40.24658,10.10449,13.72339,10.10449,13.72559,29.84375a82.89481,82.89481,0,0,1-9.18945,38.207q-9.19263,18.0044-28.96338,25.4336l23.729,50.00683q2.55762,5.354,1.51221,7.32813-1.04662,1.979-6.86621,2.21l-24.8999,1.39551q-6.97926.23-9.30909-4.1875l-24.89941-51.17969h-16.05566l-7.57911,42.36523q-1.10668,6.18312-3.77294,8.97461-2.67187,2.792-8.0044,3.02442l-17.397.93066q-5.57227.22852-7.42627-2.09375Q1229.27709,619.43749,1230.44238,613.4043Zm51.35157-81.03125h21.66064q13.511,0,21.0791-6.07422,7.56811-6.07471,7.57178-16.82617,0-13.54981-22.06055-13.55176a138.54559,138.54559,0,0,0-22.06054,1.876Z" transform="translate(-194 -48.43519)"/><path class="cls-3" d="M1366.27051,613.86914l102.59326-149.35449q3.49-4.88526,5.11816-4.88477,1.85963,0,3.25684,4.89649L1527.25586,613.415q1.86035,5.34815.69922,7.208-1.16895,1.86474-6.51172,2.09375l-23.02344,1.3955q-5.354.23-7.67724-1.04687-2.32251-1.27589-3.48584-5.23438l-6.1211-20.47949h-62.98681l-14.42383,22.10059q-3.26075,4.88525-9.771,4.65332l-26.05517-1.39649a8.12816,8.12816,0,0,1-4.07129-1.04687,2.11417,2.11417,0,0,1-.46534-2.55859A25.67713,25.67713,0,0,1,1366.27051,613.86914Zm106.10107-45.83008-10.91943-36.52441-24.19434,36.52441Z" transform="translate(-194 -48.43519)"/><path class="cls-3" d="M1535.19727,604.33105l10.23632-19.07617q3.95215-7.67724,10.9336-4.65332a124.32819,124.32819,0,0,0,44.43457,7.67774q14.187,0,22.10058-3.49024,7.90576-3.48925,7.90918-9.77051,0-3.95361-6.04785-6.74707a54.47823,54.47823,0,0,0-15.00586-4.07031,158.51428,158.51428,0,0,1-19.541-4.1875,163.647,163.647,0,0,1-19.542-6.63086,35.65016,35.65016,0,0,1-15.00488-11.748q-6.05273-8.02589-6.04883-19.42481,0-28.38135,21.05371-45.59766,21.05127-17.21337,55.7168-17.21484a126.71415,126.71415,0,0,1,40.24707,6.74609q4.88526,1.63038,5.93164,4.1875,1.04736,2.562-1.27929,7.21192l-9.07325,17.91308q-3.72363,7.91163-12.09668,5.11817a104.71291,104.71291,0,0,0-30.47558-4.65332q-14.19288,0-22.79883,3.83887-8.60889,3.83936-8.60742,9.88769,0,5.354,8.375,8.72363a131.897,131.897,0,0,0,20.35547,6.04883q11.97948,2.67627,23.96191,6.39746a48.72337,48.72337,0,0,1,20.35547,12.09668q8.376,8.376,8.375,20.9375,0,28.61426-20.23926,44.667-20.23974,16.05177-56.29883,16.05176-24.895,0-55.833-10.70117Q1531.24415,611.77587,1535.19727,604.33105Z" transform="translate(-194 -48.43519)"/><path class="cls-3" d="M1727.12109,459.94238l17.6836-.93066q5.3496-.22851,7.32812,2.09375,1.97461,2.32764.81446,8.375l-25.04883,141.39746q-1.10157,6.23145-3.76953,9.02148-2.67042,2.792-8.00391,3.02442l-17.4043.93066q-5.57226.22852-7.42578-2.09375-1.86035-2.32325-.69433-8.35644l24.65527-140.51465Q1717.11621,460.64356,1727.12109,459.94238Z" transform="translate(-194 -48.43519)"/><path class="cls-3" d="M1808.08008,585.95215h73.51367q5.8125,0,7.67676,2.09375,1.85889,2.09472,0,7.21191l-5.81641,15.81934q-4.18651,11.1665-15.12109,11.167h-83.57227q-10.62012,0-14.209-5.918-3.5874-5.92089-1.26074-19.38867l21.87109-123.99609q1.85449-11.19434,11.80664-11.89453l17.59668-.92969q5.32177-.23,7.2959,2.09375,1.96875,2.32764.80664,8.375Z" transform="translate(-194 -48.43519)"/></svg>